<svg width="544" height="422" viewBox="0 0 544 422" fill="none" xmlns="http://www.w3.org/2000/svg">
<path d="M533.79 355.485H10.7598V355.747H533.79V355.485Z" fill="#EBEBEB"/>
<path d="M481.383 372.334H446.737V372.596H481.383V372.334Z" fill="#EBEBEB"/>
<path d="M357.236 375.183H348.146V375.444H357.236V375.183Z" fill="#EBEBEB"/>
<path d="M445.691 362.617H425.617V362.878H445.691V362.617Z" fill="#EBEBEB"/>
<path d="M110.815 364.376H65.6357V364.638H110.815V364.376Z" fill="#EBEBEB"/>
<path d="M126.757 364.376H120.136V364.638H126.757V364.376Z" fill="#EBEBEB"/>
<path d="M246.281 368.795H148.286V369.057H246.281V368.795Z" fill="#EBEBEB"/>
<path d="M258.697 308.782H56.7025C53.4074 308.782 50.7295 306.101 50.7295 302.802V18.5704C50.7295 15.2719 53.4074 12.5911 56.7025 12.5911H258.697C261.992 12.5911 264.67 15.2719 264.67 18.5704V302.802C264.66 306.101 261.982 308.782 258.697 308.782ZM56.7025 12.8529C53.5539 12.8529 50.991 15.4185 50.991 18.5704V302.802C50.991 305.954 53.5539 308.52 56.7025 308.52H258.697C261.846 308.52 264.408 305.954 264.408 302.802V18.5704C264.408 15.4185 261.846 12.8529 258.697 12.8529H56.7025Z" fill="#EBEBEB"/>
<path d="M484.95 308.782H282.955C279.66 308.782 276.982 306.101 276.982 302.802V18.5704C276.982 15.2719 279.66 12.5911 282.955 12.5911H484.95C488.245 12.5911 490.923 15.2719 490.923 18.5704V302.802C490.923 306.101 488.245 308.782 484.95 308.782ZM282.966 12.8529C279.817 12.8529 277.254 15.4185 277.254 18.5704V302.802C277.254 305.954 279.817 308.52 282.966 308.52H484.96C488.109 308.52 490.672 305.954 490.672 302.802V18.5704C490.672 15.4185 488.109 12.8529 484.96 12.8529H282.966Z" fill="#EBEBEB"/>
<path d="M476.697 77.7457H223.257V322.301H476.697V77.7457Z" fill="#E0E0E0"/>
<path d="M476.697 82.1962H227.326V318.039H476.697V82.1962Z" fill="#F5F5F5"/>
<path d="M229.167 260.916V189.981H236.532V180.609L253.091 172.86V163.268H255.852V189.981H258.614V260.916H262.296V224.066H270.581V204.725H273.342V260.916H279.786V239.732H284.389V234.203H294.504V214.851H300.027V201.96H306.471V182.609H309.233V201.96H315.677V214.851H321.2V234.203H331.326V239.732H335.918V260.916H341.441V234.203H351.567V175.237H354.328V168.797H376.411V175.237H381.013V217.616H399.424V222.223H405.868V224.988H399.424V241.575H418.745V186.295H422.427V175.237H431.632V132.858H434.394V175.237H440.838V186.295H476.697V318.039H227.326V260.916H229.167Z" fill="#E6E6E6"/>
<path d="M457.532 189.185H454.928V191.792H457.532V189.185Z" fill="#F0F0F0"/>
<path d="M457.532 193.562H454.928V196.17H457.532V193.562Z" fill="#F0F0F0"/>
<path d="M457.532 211.06H454.928V213.668H457.532V211.06Z" fill="#F0F0F0"/>
<path d="M457.532 215.438H454.928V218.045H457.532V215.438Z" fill="#F0F0F0"/>
<path d="M457.532 219.815H454.928V222.422H457.532V219.815Z" fill="#F0F0F0"/>
<path d="M457.532 232.946H454.928V235.554H457.532V232.946Z" fill="#F0F0F0"/>
<path d="M457.532 237.323H454.928V239.931H457.532V237.323Z" fill="#F0F0F0"/>
<path d="M453.39 206.694H450.785V209.301H453.39V206.694Z" fill="#F0F0F0"/>
<path d="M453.39 211.06H450.785V213.668H453.39V211.06Z" fill="#F0F0F0"/>
<path d="M453.39 215.438H450.785V218.045H453.39V215.438Z" fill="#F0F0F0"/>
<path d="M453.39 219.815H450.785V222.422H453.39V219.815Z" fill="#F0F0F0"/>
<path d="M453.39 224.192H450.785V226.799H453.39V224.192Z" fill="#F0F0F0"/>
<path d="M453.39 232.946H450.785V235.554H453.39V232.946Z" fill="#F0F0F0"/>
<path d="M453.39 237.323H450.785V239.931H453.39V237.323Z" fill="#F0F0F0"/>
<path d="M449.247 189.185H446.643V191.792H449.247V189.185Z" fill="#F0F0F0"/>
<path d="M449.247 193.562H446.643V196.17H449.247V193.562Z" fill="#F0F0F0"/>
<path d="M449.247 197.939H446.643V200.547H449.247V197.939Z" fill="#F0F0F0"/>
<path d="M449.247 202.317H446.643V204.924H449.247V202.317Z" fill="#F0F0F0"/>
<path d="M449.247 206.694H446.643V209.301H449.247V206.694Z" fill="#F0F0F0"/>
<path d="M449.247 211.06H446.643V213.668H449.247V211.06Z" fill="#F0F0F0"/>
<path d="M449.247 215.438H446.643V218.045H449.247V215.438Z" fill="#F0F0F0"/>
<path d="M449.247 219.815H446.643V222.422H449.247V219.815Z" fill="#F0F0F0"/>
<path d="M449.247 224.192H446.643V226.799H449.247V224.192Z" fill="#F0F0F0"/>
<path d="M449.247 228.569H446.643V231.176H449.247V228.569Z" fill="#F0F0F0"/>
<path d="M449.247 237.323H446.643V239.931H449.247V237.323Z" fill="#F0F0F0"/>
<path d="M445.106 189.185H442.501V191.792H445.106V189.185Z" fill="#F0F0F0"/>
<path d="M445.106 193.562H442.501V196.17H445.106V193.562Z" fill="#F0F0F0"/>
<path d="M445.106 197.939H442.501V200.547H445.106V197.939Z" fill="#F0F0F0"/>
<path d="M445.106 202.317H442.501V204.924H445.106V202.317Z" fill="#F0F0F0"/>
<path d="M445.106 206.694H442.501V209.301H445.106V206.694Z" fill="#F0F0F0"/>
<path d="M445.106 211.06H442.501V213.668H445.106V211.06Z" fill="#F0F0F0"/>
<path d="M445.106 215.438H442.501V218.045H445.106V215.438Z" fill="#F0F0F0"/>
<path d="M445.106 254.821H442.501V257.429H445.106V254.821Z" fill="#F0F0F0"/>
<path d="M440.963 189.185H438.358V191.792H440.963V189.185Z" fill="#F0F0F0"/>
<path d="M440.963 193.562H438.358V196.17H440.963V193.562Z" fill="#F0F0F0"/>
<path d="M440.963 197.939H438.358V200.547H440.963V197.939Z" fill="#F0F0F0"/>
<path d="M440.963 202.317H438.358V204.924H440.963V202.317Z" fill="#F0F0F0"/>
<path d="M440.963 206.694H438.358V209.301H440.963V206.694Z" fill="#F0F0F0"/>
<path d="M440.963 211.06H438.358V213.668H440.963V211.06Z" fill="#F0F0F0"/>
<path d="M440.963 215.438H438.358V218.045H440.963V215.438Z" fill="#F0F0F0"/>
<path d="M440.963 219.815H438.358V222.422H440.963V219.815Z" fill="#F0F0F0"/>
<path d="M440.963 246.078H438.358V248.685H440.963V246.078Z" fill="#F0F0F0"/>
<path d="M440.963 250.455H438.358V253.062H440.963V250.455Z" fill="#F0F0F0"/>
<path d="M440.963 254.821H438.358V257.429H440.963V254.821Z" fill="#F0F0F0"/>
<path d="M440.963 259.199H438.358V261.806H440.963V259.199Z" fill="#F0F0F0"/>
<path d="M440.963 276.707H438.358V279.315H440.963V276.707Z" fill="#F0F0F0"/>
<path d="M436.831 189.185H434.227V191.792H436.831V189.185Z" fill="#F0F0F0"/>
<path d="M436.831 193.562H434.227V196.17H436.831V193.562Z" fill="#F0F0F0"/>
<path d="M436.831 197.939H434.227V200.547H436.831V197.939Z" fill="#F0F0F0"/>
<path d="M436.831 202.317H434.227V204.924H436.831V202.317Z" fill="#F0F0F0"/>
<path d="M436.831 206.694H434.227V209.301H436.831V206.694Z" fill="#F0F0F0"/>
<path d="M436.831 211.06H434.227V213.668H436.831V211.06Z" fill="#F0F0F0"/>
<path d="M436.831 215.438H434.227V218.045H436.831V215.438Z" fill="#F0F0F0"/>
<path d="M436.831 219.815H434.227V222.422H436.831V219.815Z" fill="#F0F0F0"/>
<path d="M436.831 224.192H434.227V226.799H436.831V224.192Z" fill="#F0F0F0"/>
<path d="M436.831 228.569H434.227V231.176H436.831V228.569Z" fill="#F0F0F0"/>
<path d="M436.831 241.7H434.227V244.308H436.831V241.7Z" fill="#F0F0F0"/>
<path d="M436.831 246.078H434.227V248.685H436.831V246.078Z" fill="#F0F0F0"/>
<path d="M436.831 250.455H434.227V253.062H436.831V250.455Z" fill="#F0F0F0"/>
<path d="M436.831 254.821H434.227V257.429H436.831V254.821Z" fill="#F0F0F0"/>
<path d="M436.831 259.199H434.227V261.806H436.831V259.199Z" fill="#F0F0F0"/>
<path d="M436.831 276.707H434.227V279.315H436.831V276.707Z" fill="#F0F0F0"/>
<path d="M432.689 189.185H430.084V191.792H432.689V189.185Z" fill="#F0F0F0"/>
<path d="M432.689 193.562H430.084V196.17H432.689V193.562Z" fill="#F0F0F0"/>
<path d="M432.689 197.939H430.084V200.547H432.689V197.939Z" fill="#F0F0F0"/>
<path d="M432.689 202.317H430.084V204.924H432.689V202.317Z" fill="#F0F0F0"/>
<path d="M432.689 206.694H430.084V209.301H432.689V206.694Z" fill="#F0F0F0"/>
<path d="M432.689 211.06H430.084V213.668H432.689V211.06Z" fill="#F0F0F0"/>
<path d="M432.689 215.438H430.084V218.045H432.689V215.438Z" fill="#F0F0F0"/>
<path d="M432.689 219.815H430.084V222.422H432.689V219.815Z" fill="#F0F0F0"/>
<path d="M432.689 224.192H430.084V226.799H432.689V224.192Z" fill="#F0F0F0"/>
<path d="M432.689 228.569H430.084V231.176H432.689V228.569Z" fill="#F0F0F0"/>
<path d="M432.689 232.946H430.084V235.554H432.689V232.946Z" fill="#F0F0F0"/>
<path d="M432.689 237.323H430.084V239.931H432.689V237.323Z" fill="#F0F0F0"/>
<path d="M432.689 241.7H430.084V244.308H432.689V241.7Z" fill="#F0F0F0"/>
<path d="M432.689 246.078H430.084V248.685H432.689V246.078Z" fill="#F0F0F0"/>
<path d="M432.689 250.455H430.084V253.062H432.689V250.455Z" fill="#F0F0F0"/>
<path d="M432.689 254.821H430.084V257.429H432.689V254.821Z" fill="#F0F0F0"/>
<path d="M432.689 259.199H430.084V261.806H432.689V259.199Z" fill="#F0F0F0"/>
<path d="M432.689 263.576H430.084V266.183H432.689V263.576Z" fill="#F0F0F0"/>
<path d="M428.546 189.185H425.941V191.792H428.546V189.185Z" fill="#F0F0F0"/>
<path d="M428.546 193.562H425.941V196.17H428.546V193.562Z" fill="#F0F0F0"/>
<path d="M428.546 197.939H425.941V200.547H428.546V197.939Z" fill="#F0F0F0"/>
<path d="M428.546 202.317H425.941V204.924H428.546V202.317Z" fill="#F0F0F0"/>
<path d="M428.546 206.694H425.941V209.301H428.546V206.694Z" fill="#F0F0F0"/>
<path d="M428.546 211.06H425.941V213.668H428.546V211.06Z" fill="#F0F0F0"/>
<path d="M428.546 215.438H425.941V218.045H428.546V215.438Z" fill="#F0F0F0"/>
<path d="M428.546 219.815H425.941V222.422H428.546V219.815Z" fill="#F0F0F0"/>
<path d="M428.546 224.192H425.941V226.799H428.546V224.192Z" fill="#F0F0F0"/>
<path d="M428.546 228.569H425.941V231.176H428.546V228.569Z" fill="#F0F0F0"/>
<path d="M428.546 241.7H425.941V244.308H428.546V241.7Z" fill="#F0F0F0"/>
<path d="M428.546 246.078H425.941V248.685H428.546V246.078Z" fill="#F0F0F0"/>
<path d="M428.546 250.455H425.941V253.062H428.546V250.455Z" fill="#F0F0F0"/>
<path d="M428.546 254.821H425.941V257.429H428.546V254.821Z" fill="#F0F0F0"/>
<path d="M424.404 189.185H421.799V191.792H424.404V189.185Z" fill="#F0F0F0"/>
<path d="M424.404 193.562H421.799V196.17H424.404V193.562Z" fill="#F0F0F0"/>
<path d="M424.404 197.939H421.799V200.547H424.404V197.939Z" fill="#F0F0F0"/>
<path d="M424.404 202.317H421.799V204.924H424.404V202.317Z" fill="#F0F0F0"/>
<path d="M424.404 206.694H421.799V209.301H424.404V206.694Z" fill="#F0F0F0"/>
<path d="M424.404 211.06H421.799V213.668H424.404V211.06Z" fill="#F0F0F0"/>
<path d="M424.404 215.438H421.799V218.045H424.404V215.438Z" fill="#F0F0F0"/>
<path d="M424.404 219.815H421.799V222.422H424.404V219.815Z" fill="#F0F0F0"/>
<path d="M424.404 224.192H421.799V226.799H424.404V224.192Z" fill="#F0F0F0"/>
<path d="M424.404 228.569H421.799V231.176H424.404V228.569Z" fill="#F0F0F0"/>
<path d="M424.404 241.7H421.799V244.308H424.404V241.7Z" fill="#F0F0F0"/>
<path d="M424.404 246.078H421.799V248.685H424.404V246.078Z" fill="#F0F0F0"/>
<path d="M424.404 250.455H421.799V253.062H424.404V250.455Z" fill="#F0F0F0"/>
<path d="M377.771 177.823H375.166V180.431H377.771V177.823Z" fill="#F0F0F0"/>
<path d="M377.771 182.201H375.166V184.808H377.771V182.201Z" fill="#F0F0F0"/>
<path d="M377.771 186.578H375.166V189.185H377.771V186.578Z" fill="#F0F0F0"/>
<path d="M377.771 190.955H375.166V193.562H377.771V190.955Z" fill="#F0F0F0"/>
<path d="M377.771 195.332H375.166V197.939H377.771V195.332Z" fill="#F0F0F0"/>
<path d="M377.771 199.699H375.166V202.306H377.771V199.699Z" fill="#F0F0F0"/>
<path d="M377.771 204.076H375.166V206.683H377.771V204.076Z" fill="#F0F0F0"/>
<path d="M377.771 208.453H375.166V211.06H377.771V208.453Z" fill="#F0F0F0"/>
<path d="M377.771 221.584H375.166V224.192H377.771V221.584Z" fill="#F0F0F0"/>
<path d="M377.771 225.962H375.166V228.569H377.771V225.962Z" fill="#F0F0F0"/>
<path d="M373.628 177.823H371.023V180.431H373.628V177.823Z" fill="#F0F0F0"/>
<path d="M373.628 182.201H371.023V184.808H373.628V182.201Z" fill="#F0F0F0"/>
<path d="M373.628 186.578H371.023V189.185H373.628V186.578Z" fill="#F0F0F0"/>
<path d="M373.628 190.955H371.023V193.562H373.628V190.955Z" fill="#F0F0F0"/>
<path d="M373.628 195.332H371.023V197.939H373.628V195.332Z" fill="#F0F0F0"/>
<path d="M373.628 199.699H371.023V202.306H373.628V199.699Z" fill="#F0F0F0"/>
<path d="M373.628 204.076H371.023V206.683H373.628V204.076Z" fill="#F0F0F0"/>
<path d="M373.628 208.453H371.023V211.06H373.628V208.453Z" fill="#F0F0F0"/>
<path d="M373.628 225.962H371.023V228.569H373.628V225.962Z" fill="#F0F0F0"/>
<path d="M369.486 177.823H366.881V180.431H369.486V177.823Z" fill="#F0F0F0"/>
<path d="M369.486 182.201H366.881V184.808H369.486V182.201Z" fill="#F0F0F0"/>
<path d="M369.486 186.578H366.881V189.185H369.486V186.578Z" fill="#F0F0F0"/>
<path d="M369.486 190.955H366.881V193.562H369.486V190.955Z" fill="#F0F0F0"/>
<path d="M369.486 195.332H366.881V197.939H369.486V195.332Z" fill="#F0F0F0"/>
<path d="M369.486 199.699H366.881V202.306H369.486V199.699Z" fill="#F0F0F0"/>
<path d="M369.486 204.076H366.881V206.683H369.486V204.076Z" fill="#F0F0F0"/>
<path d="M369.486 208.453H366.881V211.06H369.486V208.453Z" fill="#F0F0F0"/>
<path d="M365.354 177.823H362.749V180.431H365.354V177.823Z" fill="#F0F0F0"/>
<path d="M365.354 182.201H362.749V184.808H365.354V182.201Z" fill="#F0F0F0"/>
<path d="M365.354 186.578H362.749V189.185H365.354V186.578Z" fill="#F0F0F0"/>
<path d="M365.354 190.955H362.749V193.562H365.354V190.955Z" fill="#F0F0F0"/>
<path d="M365.354 195.332H362.749V197.939H365.354V195.332Z" fill="#F0F0F0"/>
<path d="M365.354 199.699H362.749V202.306H365.354V199.699Z" fill="#F0F0F0"/>
<path d="M365.354 208.453H362.749V211.06H365.354V208.453Z" fill="#F0F0F0"/>
<path d="M365.354 212.83H362.749V215.438H365.354V212.83Z" fill="#F0F0F0"/>
<path d="M365.354 225.962H362.749V228.569H365.354V225.962Z" fill="#F0F0F0"/>
<path d="M365.354 230.339H362.749V232.946H365.354V230.339Z" fill="#F0F0F0"/>
<path d="M365.354 234.716H362.749V237.323H365.354V234.716Z" fill="#F0F0F0"/>
<path d="M365.354 239.093H362.749V241.7H365.354V239.093Z" fill="#F0F0F0"/>
<path d="M365.354 243.46H362.749V246.067H365.354V243.46Z" fill="#F0F0F0"/>
<path d="M365.354 247.837H362.749V250.444H365.354V247.837Z" fill="#F0F0F0"/>
<path d="M365.354 252.214H362.749V254.821H365.354V252.214Z" fill="#F0F0F0"/>
<path d="M361.211 177.823H358.606V180.431H361.211V177.823Z" fill="#F0F0F0"/>
<path d="M361.211 182.201H358.606V184.808H361.211V182.201Z" fill="#F0F0F0"/>
<path d="M361.211 186.578H358.606V189.185H361.211V186.578Z" fill="#F0F0F0"/>
<path d="M361.211 190.955H358.606V193.562H361.211V190.955Z" fill="#F0F0F0"/>
<path d="M361.211 195.332H358.606V197.939H361.211V195.332Z" fill="#F0F0F0"/>
<path d="M361.211 199.699H358.606V202.306H361.211V199.699Z" fill="#F0F0F0"/>
<path d="M361.211 212.83H358.606V215.438H361.211V212.83Z" fill="#F0F0F0"/>
<path d="M361.211 217.207H358.606V219.815H361.211V217.207Z" fill="#F0F0F0"/>
<path d="M361.211 221.584H358.606V224.192H361.211V221.584Z" fill="#F0F0F0"/>
<path d="M361.211 225.962H358.606V228.569H361.211V225.962Z" fill="#F0F0F0"/>
<path d="M361.211 230.339H358.606V232.946H361.211V230.339Z" fill="#F0F0F0"/>
<path d="M361.211 234.716H358.606V237.323H361.211V234.716Z" fill="#F0F0F0"/>
<path d="M361.211 239.093H358.606V241.7H361.211V239.093Z" fill="#F0F0F0"/>
<path d="M361.211 243.46H358.606V246.067H361.211V243.46Z" fill="#F0F0F0"/>
<path d="M361.211 247.837H358.606V250.444H361.211V247.837Z" fill="#F0F0F0"/>
<path d="M361.211 252.214H358.606V254.821H361.211V252.214Z" fill="#F0F0F0"/>
<path d="M361.211 256.591H358.606V259.199H361.211V256.591Z" fill="#F0F0F0"/>
<path d="M361.211 265.345H358.606V267.953H361.211V265.345Z" fill="#F0F0F0"/>
<path d="M357.069 177.823H354.464V180.431H357.069V177.823Z" fill="#F0F0F0"/>
<path d="M357.069 182.201H354.464V184.808H357.069V182.201Z" fill="#F0F0F0"/>
<path d="M357.069 186.578H354.464V189.185H357.069V186.578Z" fill="#F0F0F0"/>
<path d="M357.069 190.955H354.464V193.562H357.069V190.955Z" fill="#F0F0F0"/>
<path d="M357.069 195.332H354.464V197.939H357.069V195.332Z" fill="#F0F0F0"/>
<path d="M357.069 199.699H354.464V202.306H357.069V199.699Z" fill="#F0F0F0"/>
<path d="M357.069 212.83H354.464V215.438H357.069V212.83Z" fill="#F0F0F0"/>
<path d="M357.069 217.207H354.464V219.815H357.069V217.207Z" fill="#F0F0F0"/>
<path d="M357.069 221.584H354.464V224.192H357.069V221.584Z" fill="#F0F0F0"/>
<path d="M357.069 225.962H354.464V228.569H357.069V225.962Z" fill="#F0F0F0"/>
<path d="M357.069 239.093H354.464V241.7H357.069V239.093Z" fill="#F0F0F0"/>
<path d="M357.069 243.46H354.464V246.067H357.069V243.46Z" fill="#F0F0F0"/>
<path d="M357.069 247.837H354.464V250.444H357.069V247.837Z" fill="#F0F0F0"/>
<path d="M357.069 252.214H354.464V254.821H357.069V252.214Z" fill="#F0F0F0"/>
<path d="M357.069 256.591H354.464V259.199H357.069V256.591Z" fill="#F0F0F0"/>
<path d="M357.069 265.345H354.464V267.953H357.069V265.345Z" fill="#F0F0F0"/>
<path d="M357.069 269.723H354.464V272.33H357.069V269.723Z" fill="#F0F0F0"/>
<path d="M319.484 218.516H316.879V221.124H319.484V218.516Z" fill="#F0F0F0"/>
<path d="M319.484 222.893H316.879V225.501H319.484V222.893Z" fill="#F0F0F0"/>
<path d="M319.484 227.26H316.879V229.868H319.484V227.26Z" fill="#F0F0F0"/>
<path d="M319.484 231.637H316.879V234.245H319.484V231.637Z" fill="#F0F0F0"/>
<path d="M319.484 236.014H316.879V238.622H319.484V236.014Z" fill="#F0F0F0"/>
<path d="M319.484 240.391H316.879V242.999H319.484V240.391Z" fill="#F0F0F0"/>
<path d="M319.484 244.769H316.879V247.376H319.484V244.769Z" fill="#F0F0F0"/>
<path d="M319.484 257.9H316.879V260.508H319.484V257.9Z" fill="#F0F0F0"/>
<path d="M319.484 262.277H316.879V264.885H319.484V262.277Z" fill="#F0F0F0"/>
<path d="M319.484 266.654H316.879V269.262H319.484V266.654Z" fill="#F0F0F0"/>
<path d="M315.341 218.516H312.736V221.124H315.341V218.516Z" fill="#F0F0F0"/>
<path d="M315.341 222.893H312.736V225.501H315.341V222.893Z" fill="#F0F0F0"/>
<path d="M315.341 227.26H312.736V229.868H315.341V227.26Z" fill="#F0F0F0"/>
<path d="M315.341 231.637H312.736V234.245H315.341V231.637Z" fill="#F0F0F0"/>
<path d="M315.341 236.014H312.736V238.622H315.341V236.014Z" fill="#F0F0F0"/>
<path d="M315.341 240.391H312.736V242.999H315.341V240.391Z" fill="#F0F0F0"/>
<path d="M315.341 244.769H312.736V247.376H315.341V244.769Z" fill="#F0F0F0"/>
<path d="M311.209 218.516H308.604V221.124H311.209V218.516Z" fill="#F0F0F0"/>
<path d="M311.209 222.893H308.604V225.501H311.209V222.893Z" fill="#F0F0F0"/>
<path d="M311.209 227.26H308.604V229.868H311.209V227.26Z" fill="#F0F0F0"/>
<path d="M311.209 231.637H308.604V234.245H311.209V231.637Z" fill="#F0F0F0"/>
<path d="M311.209 236.014H308.604V238.622H311.209V236.014Z" fill="#F0F0F0"/>
<path d="M311.209 240.391H308.604V242.999H311.209V240.391Z" fill="#F0F0F0"/>
<path d="M311.209 244.769H308.604V247.376H311.209V244.769Z" fill="#F0F0F0"/>
<path d="M307.067 218.516H304.462V221.124H307.067V218.516Z" fill="#F0F0F0"/>
<path d="M307.067 222.893H304.462V225.501H307.067V222.893Z" fill="#F0F0F0"/>
<path d="M307.067 227.26H304.462V229.868H307.067V227.26Z" fill="#F0F0F0"/>
<path d="M307.067 231.637H304.462V234.245H307.067V231.637Z" fill="#F0F0F0"/>
<path d="M307.067 236.014H304.462V238.622H307.067V236.014Z" fill="#F0F0F0"/>
<path d="M307.067 240.391H304.462V242.999H307.067V240.391Z" fill="#F0F0F0"/>
<path d="M307.067 244.769H304.462V247.376H307.067V244.769Z" fill="#F0F0F0"/>
<path d="M307.067 249.146H304.462V251.753H307.067V249.146Z" fill="#F0F0F0"/>
<path d="M307.067 253.523H304.462V256.13H307.067V253.523Z" fill="#F0F0F0"/>
<path d="M307.067 257.9H304.462V260.508H307.067V257.9Z" fill="#F0F0F0"/>
<path d="M307.067 262.277H304.462V264.885H307.067V262.277Z" fill="#F0F0F0"/>
<path d="M302.925 218.516H300.32V221.124H302.925V218.516Z" fill="#F0F0F0"/>
<path d="M302.925 222.893H300.32V225.501H302.925V222.893Z" fill="#F0F0F0"/>
<path d="M302.925 227.26H300.32V229.868H302.925V227.26Z" fill="#F0F0F0"/>
<path d="M302.925 231.637H300.32V234.245H302.925V231.637Z" fill="#F0F0F0"/>
<path d="M302.925 236.014H300.32V238.622H302.925V236.014Z" fill="#F0F0F0"/>
<path d="M302.925 240.391H300.32V242.999H302.925V240.391Z" fill="#F0F0F0"/>
<path d="M302.925 244.769H300.32V247.376H302.925V244.769Z" fill="#F0F0F0"/>
<path d="M302.925 249.146H300.32V251.753H302.925V249.146Z" fill="#F0F0F0"/>
<path d="M302.925 253.523H300.32V256.13H302.925V253.523Z" fill="#F0F0F0"/>
<path d="M302.925 257.9H300.32V260.508H302.925V257.9Z" fill="#F0F0F0"/>
<path d="M302.925 262.277H300.32V264.885H302.925V262.277Z" fill="#F0F0F0"/>
<path d="M302.925 266.654H300.32V269.262H302.925V266.654Z" fill="#F0F0F0"/>
<path d="M302.925 279.775H300.32V282.383H302.925V279.775Z" fill="#F0F0F0"/>
<path d="M302.925 284.153H300.32V286.76H302.925V284.153Z" fill="#F0F0F0"/>
<path d="M298.782 218.516H296.178V221.124H298.782V218.516Z" fill="#F0F0F0"/>
<path d="M298.782 222.893H296.178V225.501H298.782V222.893Z" fill="#F0F0F0"/>
<path d="M298.782 227.26H296.178V229.868H298.782V227.26Z" fill="#F0F0F0"/>
<path d="M298.782 240.391H296.178V242.999H298.782V240.391Z" fill="#F0F0F0"/>
<path d="M298.782 244.769H296.178V247.376H298.782V244.769Z" fill="#F0F0F0"/>
<path d="M298.782 249.146H296.178V251.753H298.782V249.146Z" fill="#F0F0F0"/>
<path d="M298.782 253.523H296.178V256.13H298.782V253.523Z" fill="#F0F0F0"/>
<path d="M298.782 257.9H296.178V260.508H298.782V257.9Z" fill="#F0F0F0"/>
<path d="M298.782 262.277H296.178V264.885H298.782V262.277Z" fill="#F0F0F0"/>
<path d="M298.782 266.654H296.178V269.262H298.782V266.654Z" fill="#F0F0F0"/>
<path d="M298.782 279.775H296.178V282.383H298.782V279.775Z" fill="#F0F0F0"/>
<path d="M298.782 284.153H296.178V286.76H298.782V284.153Z" fill="#F0F0F0"/>
<path d="M298.782 288.53H296.178V291.137H298.782V288.53Z" fill="#F0F0F0"/>
<path d="M255.37 192.253H252.766V194.861H255.37V192.253Z" fill="#F0F0F0"/>
<path d="M255.37 196.63H252.766V199.238H255.37V196.63Z" fill="#F0F0F0"/>
<path d="M255.37 201.008H252.766V203.615H255.37V201.008Z" fill="#F0F0F0"/>
<path d="M255.37 205.385H252.766V207.992H255.37V205.385Z" fill="#F0F0F0"/>
<path d="M255.37 209.762H252.766V212.369H255.37V209.762Z" fill="#F0F0F0"/>
<path d="M255.37 214.139H252.766V216.746H255.37V214.139Z" fill="#F0F0F0"/>
<path d="M255.37 218.516H252.766V221.124H255.37V218.516Z" fill="#F0F0F0"/>
<path d="M255.37 222.893H252.766V225.501H255.37V222.893Z" fill="#F0F0F0"/>
<path d="M255.37 227.26H252.766V229.868H255.37V227.26Z" fill="#F0F0F0"/>
<path d="M255.37 231.637H252.766V234.245H255.37V231.637Z" fill="#F0F0F0"/>
<path d="M255.37 236.014H252.766V238.622H255.37V236.014Z" fill="#F0F0F0"/>
<path d="M255.37 240.391H252.766V242.999H255.37V240.391Z" fill="#F0F0F0"/>
<path d="M255.37 244.769H252.766V247.376H255.37V244.769Z" fill="#F0F0F0"/>
<path d="M255.37 249.146H252.766V251.753H255.37V249.146Z" fill="#F0F0F0"/>
<path d="M255.37 253.523H252.766V256.13H255.37V253.523Z" fill="#F0F0F0"/>
<path d="M255.37 257.9H252.766V260.508H255.37V257.9Z" fill="#F0F0F0"/>
<path d="M255.37 262.277H252.766V264.885H255.37V262.277Z" fill="#F0F0F0"/>
<path d="M255.37 266.654H252.766V269.262H255.37V266.654Z" fill="#F0F0F0"/>
<path d="M255.37 271.021H252.766V273.628H255.37V271.021Z" fill="#F0F0F0"/>
<path d="M255.37 275.398H252.766V278.006H255.37V275.398Z" fill="#F0F0F0"/>
<path d="M255.37 279.775H252.766V282.383H255.37V279.775Z" fill="#F0F0F0"/>
<path d="M255.37 284.153H252.766V286.76H255.37V284.153Z" fill="#F0F0F0"/>
<path d="M255.37 288.53H252.766V291.137H255.37V288.53Z" fill="#F0F0F0"/>
<path d="M251.229 192.253H248.624V194.861H251.229V192.253Z" fill="#F0F0F0"/>
<path d="M251.229 196.63H248.624V199.238H251.229V196.63Z" fill="#F0F0F0"/>
<path d="M251.229 201.008H248.624V203.615H251.229V201.008Z" fill="#F0F0F0"/>
<path d="M251.229 205.385H248.624V207.992H251.229V205.385Z" fill="#F0F0F0"/>
<path d="M251.229 209.762H248.624V212.369H251.229V209.762Z" fill="#F0F0F0"/>
<path d="M251.229 214.139H248.624V216.746H251.229V214.139Z" fill="#F0F0F0"/>
<path d="M251.229 218.516H248.624V221.124H251.229V218.516Z" fill="#F0F0F0"/>
<path d="M251.229 222.893H248.624V225.501H251.229V222.893Z" fill="#F0F0F0"/>
<path d="M251.229 227.26H248.624V229.868H251.229V227.26Z" fill="#F0F0F0"/>
<path d="M251.229 231.637H248.624V234.245H251.229V231.637Z" fill="#F0F0F0"/>
<path d="M251.229 236.014H248.624V238.622H251.229V236.014Z" fill="#F0F0F0"/>
<path d="M251.229 240.391H248.624V242.999H251.229V240.391Z" fill="#F0F0F0"/>
<path d="M251.229 244.769H248.624V247.376H251.229V244.769Z" fill="#F0F0F0"/>
<path d="M251.229 249.146H248.624V251.753H251.229V249.146Z" fill="#F0F0F0"/>
<path d="M251.229 253.523H248.624V256.13H251.229V253.523Z" fill="#F0F0F0"/>
<path d="M251.229 257.9H248.624V260.508H251.229V257.9Z" fill="#F0F0F0"/>
<path d="M251.229 262.277H248.624V264.885H251.229V262.277Z" fill="#F0F0F0"/>
<path d="M251.229 266.654H248.624V269.262H251.229V266.654Z" fill="#F0F0F0"/>
<path d="M251.229 271.021H248.624V273.628H251.229V271.021Z" fill="#F0F0F0"/>
<path d="M247.086 192.253H244.481V194.861H247.086V192.253Z" fill="#F0F0F0"/>
<path d="M247.086 196.63H244.481V199.238H247.086V196.63Z" fill="#F0F0F0"/>
<path d="M247.086 201.008H244.481V203.615H247.086V201.008Z" fill="#F0F0F0"/>
<path d="M247.086 205.385H244.481V207.992H247.086V205.385Z" fill="#F0F0F0"/>
<path d="M247.086 209.762H244.481V212.369H247.086V209.762Z" fill="#F0F0F0"/>
<path d="M247.086 214.139H244.481V216.746H247.086V214.139Z" fill="#F0F0F0"/>
<path d="M247.086 218.516H244.481V221.124H247.086V218.516Z" fill="#F0F0F0"/>
<path d="M247.086 222.893H244.481V225.501H247.086V222.893Z" fill="#F0F0F0"/>
<path d="M247.086 227.26H244.481V229.868H247.086V227.26Z" fill="#F0F0F0"/>
<path d="M247.086 231.637H244.481V234.245H247.086V231.637Z" fill="#F0F0F0"/>
<path d="M247.086 236.014H244.481V238.622H247.086V236.014Z" fill="#F0F0F0"/>
<path d="M247.086 240.391H244.481V242.999H247.086V240.391Z" fill="#F0F0F0"/>
<path d="M247.086 244.769H244.481V247.376H247.086V244.769Z" fill="#F0F0F0"/>
<path d="M247.086 249.146H244.481V251.753H247.086V249.146Z" fill="#F0F0F0"/>
<path d="M247.086 253.523H244.481V256.13H247.086V253.523Z" fill="#F0F0F0"/>
<path d="M247.086 257.9H244.481V260.508H247.086V257.9Z" fill="#F0F0F0"/>
<path d="M247.086 262.277H244.481V264.885H247.086V262.277Z" fill="#F0F0F0"/>
<path d="M247.086 266.654H244.481V269.262H247.086V266.654Z" fill="#F0F0F0"/>
<path d="M247.086 271.021H244.481V273.628H247.086V271.021Z" fill="#F0F0F0"/>
<path d="M242.944 192.253H240.339V194.861H242.944V192.253Z" fill="#F0F0F0"/>
<path d="M242.944 196.63H240.339V199.238H242.944V196.63Z" fill="#F0F0F0"/>
<path d="M242.944 201.008H240.339V203.615H242.944V201.008Z" fill="#F0F0F0"/>
<path d="M242.944 205.385H240.339V207.992H242.944V205.385Z" fill="#F0F0F0"/>
<path d="M242.944 209.762H240.339V212.369H242.944V209.762Z" fill="#F0F0F0"/>
<path d="M242.944 214.139H240.339V216.746H242.944V214.139Z" fill="#F0F0F0"/>
<path d="M242.944 218.516H240.339V221.124H242.944V218.516Z" fill="#F0F0F0"/>
<path d="M242.944 222.893H240.339V225.501H242.944V222.893Z" fill="#F0F0F0"/>
<path d="M242.944 227.26H240.339V229.868H242.944V227.26Z" fill="#F0F0F0"/>
<path d="M242.944 231.637H240.339V234.245H242.944V231.637Z" fill="#F0F0F0"/>
<path d="M242.944 236.014H240.339V238.622H242.944V236.014Z" fill="#F0F0F0"/>
<path d="M242.944 240.391H240.339V242.999H242.944V240.391Z" fill="#F0F0F0"/>
<path d="M242.944 244.769H240.339V247.376H242.944V244.769Z" fill="#F0F0F0"/>
<path d="M242.944 249.146H240.339V251.753H242.944V249.146Z" fill="#F0F0F0"/>
<path d="M242.944 253.523H240.339V256.13H242.944V253.523Z" fill="#F0F0F0"/>
<path d="M238.812 192.253H236.207V194.861H238.812V192.253Z" fill="#F0F0F0"/>
<path d="M238.812 196.63H236.207V199.238H238.812V196.63Z" fill="#F0F0F0"/>
<path d="M238.812 201.008H236.207V203.615H238.812V201.008Z" fill="#F0F0F0"/>
<path d="M238.812 205.385H236.207V207.992H238.812V205.385Z" fill="#F0F0F0"/>
<path d="M238.812 209.762H236.207V212.369H238.812V209.762Z" fill="#F0F0F0"/>
<path d="M238.812 214.139H236.207V216.746H238.812V214.139Z" fill="#F0F0F0"/>
<path d="M238.812 218.516H236.207V221.124H238.812V218.516Z" fill="#F0F0F0"/>
<path d="M238.812 222.893H236.207V225.501H238.812V222.893Z" fill="#F0F0F0"/>
<path d="M238.812 227.26H236.207V229.868H238.812V227.26Z" fill="#F0F0F0"/>
<path d="M238.812 231.637H236.207V234.245H238.812V231.637Z" fill="#F0F0F0"/>
<path d="M238.812 236.014H236.207V238.622H238.812V236.014Z" fill="#F0F0F0"/>
<path d="M238.812 240.391H236.207V242.999H238.812V240.391Z" fill="#F0F0F0"/>
<path d="M238.812 244.769H236.207V247.376H238.812V244.769Z" fill="#F0F0F0"/>
<path d="M234.669 192.253H232.064V194.861H234.669V192.253Z" fill="#F0F0F0"/>
<path d="M234.669 196.63H232.064V199.238H234.669V196.63Z" fill="#F0F0F0"/>
<path d="M234.669 201.008H232.064V203.615H234.669V201.008Z" fill="#F0F0F0"/>
<path d="M234.669 205.385H232.064V207.992H234.669V205.385Z" fill="#F0F0F0"/>
<path d="M234.669 209.762H232.064V212.369H234.669V209.762Z" fill="#F0F0F0"/>
<path d="M234.669 214.139H232.064V216.746H234.669V214.139Z" fill="#F0F0F0"/>
<path d="M234.669 218.516H232.064V221.124H234.669V218.516Z" fill="#F0F0F0"/>
<path d="M234.669 222.893H232.064V225.501H234.669V222.893Z" fill="#F0F0F0"/>
<path d="M234.669 227.26H232.064V229.868H234.669V227.26Z" fill="#F0F0F0"/>
<path d="M234.669 231.637H232.064V234.245H234.669V231.637Z" fill="#F0F0F0"/>
<path d="M234.669 236.014H232.064V238.622H234.669V236.014Z" fill="#F0F0F0"/>
<path d="M234.669 240.391H232.064V242.999H234.669V240.391Z" fill="#F0F0F0"/>
<path d="M476.403 190.955H473.799V193.562H476.403V190.955Z" fill="#F0F0F0"/>
<path d="M476.403 195.332H473.799V197.939H476.403V195.332Z" fill="#F0F0F0"/>
<path d="M476.403 199.699H473.799V202.306H476.403V199.699Z" fill="#F0F0F0"/>
<path d="M476.403 204.076H473.799V206.683H476.403V204.076Z" fill="#F0F0F0"/>
<path d="M476.403 208.453H473.799V211.06H476.403V208.453Z" fill="#F0F0F0"/>
<path d="M476.403 212.83H473.799V215.438H476.403V212.83Z" fill="#F0F0F0"/>
<path d="M476.403 217.207H473.799V219.815H476.403V217.207Z" fill="#F0F0F0"/>
<path d="M476.403 221.584H473.799V224.192H476.403V221.584Z" fill="#F0F0F0"/>
<path d="M476.403 225.962H473.799V228.569H476.403V225.962Z" fill="#F0F0F0"/>
<path d="M476.403 230.339H473.799V232.946H476.403V230.339Z" fill="#F0F0F0"/>
<path d="M476.403 234.716H473.799V237.323H476.403V234.716Z" fill="#F0F0F0"/>
<path d="M476.403 239.093H473.799V241.7H476.403V239.093Z" fill="#F0F0F0"/>
<path d="M476.403 243.46H473.799V246.067H476.403V243.46Z" fill="#F0F0F0"/>
<path d="M476.403 247.837H473.799V250.444H476.403V247.837Z" fill="#F0F0F0"/>
<path d="M476.403 252.214H473.799V254.821H476.403V252.214Z" fill="#F0F0F0"/>
<path d="M476.403 256.591H473.799V259.199H476.403V256.591Z" fill="#F0F0F0"/>
<path d="M476.403 260.968H473.799V263.576H476.403V260.968Z" fill="#F0F0F0"/>
<path d="M476.403 269.723H473.799V272.33H476.403V269.723Z" fill="#F0F0F0"/>
<path d="M476.403 274.1H473.799V276.707H476.403V274.1Z" fill="#F0F0F0"/>
<path d="M476.403 278.477H473.799V281.084H476.403V278.477Z" fill="#F0F0F0"/>
<path d="M476.403 282.844H473.799V285.451H476.403V282.844Z" fill="#F0F0F0"/>
<path d="M476.403 287.221H473.799V289.828H476.403V287.221Z" fill="#F0F0F0"/>
<path d="M472.261 190.955H469.656V193.562H472.261V190.955Z" fill="#F0F0F0"/>
<path d="M472.261 195.332H469.656V197.939H472.261V195.332Z" fill="#F0F0F0"/>
<path d="M472.261 199.699H469.656V202.306H472.261V199.699Z" fill="#F0F0F0"/>
<path d="M472.261 204.076H469.656V206.683H472.261V204.076Z" fill="#F0F0F0"/>
<path d="M472.261 208.453H469.656V211.06H472.261V208.453Z" fill="#F0F0F0"/>
<path d="M472.261 212.83H469.656V215.438H472.261V212.83Z" fill="#F0F0F0"/>
<path d="M472.261 217.207H469.656V219.815H472.261V217.207Z" fill="#F0F0F0"/>
<path d="M472.261 221.584H469.656V224.192H472.261V221.584Z" fill="#F0F0F0"/>
<path d="M472.261 225.962H469.656V228.569H472.261V225.962Z" fill="#F0F0F0"/>
<path d="M472.261 230.339H469.656V232.946H472.261V230.339Z" fill="#F0F0F0"/>
<path d="M472.261 234.716H469.656V237.323H472.261V234.716Z" fill="#F0F0F0"/>
<path d="M472.261 239.093H469.656V241.7H472.261V239.093Z" fill="#F0F0F0"/>
<path d="M472.261 243.46H469.656V246.067H472.261V243.46Z" fill="#F0F0F0"/>
<path d="M472.261 247.837H469.656V250.444H472.261V247.837Z" fill="#F0F0F0"/>
<path d="M472.261 252.214H469.656V254.821H472.261V252.214Z" fill="#F0F0F0"/>
<path d="M472.261 256.591H469.656V259.199H472.261V256.591Z" fill="#F0F0F0"/>
<path d="M472.261 282.844H469.656V285.451H472.261V282.844Z" fill="#F0F0F0"/>
<path d="M472.261 287.221H469.656V289.828H472.261V287.221Z" fill="#F0F0F0"/>
<path d="M468.118 190.955H465.514V193.562H468.118V190.955Z" fill="#F0F0F0"/>
<path d="M468.118 195.332H465.514V197.939H468.118V195.332Z" fill="#F0F0F0"/>
<path d="M468.118 199.699H465.514V202.306H468.118V199.699Z" fill="#F0F0F0"/>
<path d="M468.118 204.076H465.514V206.683H468.118V204.076Z" fill="#F0F0F0"/>
<path d="M468.118 208.453H465.514V211.06H468.118V208.453Z" fill="#F0F0F0"/>
<path d="M468.118 212.83H465.514V215.438H468.118V212.83Z" fill="#F0F0F0"/>
<path d="M468.118 217.207H465.514V219.815H468.118V217.207Z" fill="#F0F0F0"/>
<path d="M468.118 221.584H465.514V224.192H468.118V221.584Z" fill="#F0F0F0"/>
<path d="M468.118 225.962H465.514V228.569H468.118V225.962Z" fill="#F0F0F0"/>
<path d="M468.118 230.339H465.514V232.946H468.118V230.339Z" fill="#F0F0F0"/>
<path d="M468.118 234.716H465.514V237.323H468.118V234.716Z" fill="#F0F0F0"/>
<path d="M468.118 239.093H465.514V241.7H468.118V239.093Z" fill="#F0F0F0"/>
<path d="M468.118 243.46H465.514V246.067H468.118V243.46Z" fill="#F0F0F0"/>
<path d="M468.118 247.837H465.514V250.444H468.118V247.837Z" fill="#F0F0F0"/>
<path d="M468.118 252.214H465.514V254.821H468.118V252.214Z" fill="#F0F0F0"/>
<path d="M468.118 256.591H465.514V259.199H468.118V256.591Z" fill="#F0F0F0"/>
<path d="M468.118 265.345H465.514V267.953H468.118V265.345Z" fill="#F0F0F0"/>
<path d="M468.118 269.723H465.514V272.33H468.118V269.723Z" fill="#F0F0F0"/>
<path d="M468.118 274.1H465.514V276.707H468.118V274.1Z" fill="#F0F0F0"/>
<path d="M468.118 278.477H465.514V281.084H468.118V278.477Z" fill="#F0F0F0"/>
<path d="M468.118 287.221H465.514V289.828H468.118V287.221Z" fill="#F0F0F0"/>
<path d="M395.878 221.584H393.273V224.192H395.878V221.584Z" fill="#F0F0F0"/>
<path d="M395.878 225.962H393.273V228.569H395.878V225.962Z" fill="#F0F0F0"/>
<path d="M395.878 230.339H393.273V232.946H395.878V230.339Z" fill="#F0F0F0"/>
<path d="M395.878 234.716H393.273V237.323H395.878V234.716Z" fill="#F0F0F0"/>
<path d="M395.878 239.093H393.273V241.7H395.878V239.093Z" fill="#F0F0F0"/>
<path d="M395.878 243.46H393.273V246.067H395.878V243.46Z" fill="#F0F0F0"/>
<path d="M395.878 247.837H393.273V250.444H395.878V247.837Z" fill="#F0F0F0"/>
<path d="M395.878 252.214H393.273V254.821H395.878V252.214Z" fill="#F0F0F0"/>
<path d="M395.878 256.591H393.273V259.199H395.878V256.591Z" fill="#F0F0F0"/>
<path d="M395.878 260.968H393.273V263.576H395.878V260.968Z" fill="#F0F0F0"/>
<path d="M395.878 265.345H393.273V267.953H395.878V265.345Z" fill="#F0F0F0"/>
<path d="M395.878 269.723H393.273V272.33H395.878V269.723Z" fill="#F0F0F0"/>
<path d="M395.878 274.1H393.273V276.707H395.878V274.1Z" fill="#F0F0F0"/>
<path d="M395.878 282.844H393.273V285.451H395.878V282.844Z" fill="#F0F0F0"/>
<path d="M395.878 287.221H393.273V289.828H395.878V287.221Z" fill="#F0F0F0"/>
<path d="M395.878 291.598H393.273V294.205H395.878V291.598Z" fill="#F0F0F0"/>
<path d="M395.878 295.975H393.273V298.582H395.878V295.975Z" fill="#F0F0F0"/>
<path d="M395.878 304.729H393.273V307.337H395.878V304.729Z" fill="#F0F0F0"/>
<path d="M395.878 309.106H393.273V311.714H395.878V309.106Z" fill="#F0F0F0"/>
<path d="M395.878 313.484H393.273V316.091H395.878V313.484Z" fill="#F0F0F0"/>
<path d="M391.735 221.584H389.131V224.192H391.735V221.584Z" fill="#F0F0F0"/>
<path d="M391.735 225.962H389.131V228.569H391.735V225.962Z" fill="#F0F0F0"/>
<path d="M391.735 230.339H389.131V232.946H391.735V230.339Z" fill="#F0F0F0"/>
<path d="M391.735 234.716H389.131V237.323H391.735V234.716Z" fill="#F0F0F0"/>
<path d="M391.735 239.093H389.131V241.7H391.735V239.093Z" fill="#F0F0F0"/>
<path d="M391.735 243.46H389.131V246.067H391.735V243.46Z" fill="#F0F0F0"/>
<path d="M391.735 247.837H389.131V250.444H391.735V247.837Z" fill="#F0F0F0"/>
<path d="M391.735 252.214H389.131V254.821H391.735V252.214Z" fill="#F0F0F0"/>
<path d="M391.735 256.591H389.131V259.199H391.735V256.591Z" fill="#F0F0F0"/>
<path d="M391.735 260.968H389.131V263.576H391.735V260.968Z" fill="#F0F0F0"/>
<path d="M391.735 265.345H389.131V267.953H391.735V265.345Z" fill="#F0F0F0"/>
<path d="M391.735 269.723H389.131V272.33H391.735V269.723Z" fill="#F0F0F0"/>
<path d="M391.735 274.1H389.131V276.707H391.735V274.1Z" fill="#F0F0F0"/>
<path d="M391.735 287.221H389.131V289.828H391.735V287.221Z" fill="#F0F0F0"/>
<path d="M391.735 291.598H389.131V294.205H391.735V291.598Z" fill="#F0F0F0"/>
<path d="M391.735 300.352H389.131V302.96H391.735V300.352Z" fill="#F0F0F0"/>
<path d="M391.735 304.729H389.131V307.337H391.735V304.729Z" fill="#F0F0F0"/>
<path d="M391.735 309.106H389.131V311.714H391.735V309.106Z" fill="#F0F0F0"/>
<path d="M391.735 313.484H389.131V316.091H391.735V313.484Z" fill="#F0F0F0"/>
<path d="M387.593 221.584H384.988V224.192H387.593V221.584Z" fill="#F0F0F0"/>
<path d="M387.593 225.962H384.988V228.569H387.593V225.962Z" fill="#F0F0F0"/>
<path d="M387.593 230.339H384.988V232.946H387.593V230.339Z" fill="#F0F0F0"/>
<path d="M387.593 234.716H384.988V237.323H387.593V234.716Z" fill="#F0F0F0"/>
<path d="M387.593 239.093H384.988V241.7H387.593V239.093Z" fill="#F0F0F0"/>
<path d="M387.593 243.46H384.988V246.067H387.593V243.46Z" fill="#F0F0F0"/>
<path d="M387.593 247.837H384.988V250.444H387.593V247.837Z" fill="#F0F0F0"/>
<path d="M387.593 252.214H384.988V254.821H387.593V252.214Z" fill="#F0F0F0"/>
<path d="M387.593 256.591H384.988V259.199H387.593V256.591Z" fill="#F0F0F0"/>
<path d="M387.593 260.968H384.988V263.576H387.593V260.968Z" fill="#F0F0F0"/>
<path d="M387.593 265.345H384.988V267.953H387.593V265.345Z" fill="#F0F0F0"/>
<path d="M387.593 269.723H384.988V272.33H387.593V269.723Z" fill="#F0F0F0"/>
<path d="M387.593 274.1H384.988V276.707H387.593V274.1Z" fill="#F0F0F0"/>
<path d="M387.593 278.477H384.988V281.084H387.593V278.477Z" fill="#F0F0F0"/>
<path d="M387.593 287.221H384.988V289.828H387.593V287.221Z" fill="#F0F0F0"/>
<path d="M387.593 295.975H384.988V298.582H387.593V295.975Z" fill="#F0F0F0"/>
<path d="M387.593 300.352H384.988V302.96H387.593V300.352Z" fill="#F0F0F0"/>
<path d="M387.593 304.729H384.988V307.337H387.593V304.729Z" fill="#F0F0F0"/>
<path d="M387.593 309.106H384.988V311.714H387.593V309.106Z" fill="#F0F0F0"/>
<path d="M387.593 313.484H384.988V316.091H387.593V313.484Z" fill="#F0F0F0"/>
<path d="M412.74 246.538H410.136V249.146H412.74V246.538Z" fill="#F0F0F0"/>
<path d="M412.74 250.915H410.136V253.523H412.74V250.915Z" fill="#F0F0F0"/>
<path d="M412.74 255.282H410.136V257.89H412.74V255.282Z" fill="#F0F0F0"/>
<path d="M412.74 259.659H410.136V262.267H412.74V259.659Z" fill="#F0F0F0"/>
<path d="M412.74 264.036H410.136V266.644H412.74V264.036Z" fill="#F0F0F0"/>
<path d="M412.74 268.414H410.136V271.021H412.74V268.414Z" fill="#F0F0F0"/>
<path d="M412.74 281.545H410.136V284.153H412.74V281.545Z" fill="#F0F0F0"/>
<path d="M412.74 285.922H410.136V288.53H412.74V285.922Z" fill="#F0F0F0"/>
<path d="M412.74 290.299H410.136V292.907H412.74V290.299Z" fill="#F0F0F0"/>
<path d="M412.74 294.677H410.136V297.284H412.74V294.677Z" fill="#F0F0F0"/>
<path d="M412.74 299.043H410.136V301.651H412.74V299.043Z" fill="#F0F0F0"/>
<path d="M412.74 303.42H410.136V306.028H412.74V303.42Z" fill="#F0F0F0"/>
<path d="M412.74 307.797H410.136V310.405H412.74V307.797Z" fill="#F0F0F0"/>
<path d="M408.609 246.538H406.004V249.146H408.609V246.538Z" fill="#F0F0F0"/>
<path d="M408.609 250.915H406.004V253.523H408.609V250.915Z" fill="#F0F0F0"/>
<path d="M408.609 255.282H406.004V257.89H408.609V255.282Z" fill="#F0F0F0"/>
<path d="M408.609 259.659H406.004V262.267H408.609V259.659Z" fill="#F0F0F0"/>
<path d="M408.609 264.036H406.004V266.644H408.609V264.036Z" fill="#F0F0F0"/>
<path d="M408.609 268.414H406.004V271.021H408.609V268.414Z" fill="#F0F0F0"/>
<path d="M408.609 281.545H406.004V284.153H408.609V281.545Z" fill="#F0F0F0"/>
<path d="M408.609 285.922H406.004V288.53H408.609V285.922Z" fill="#F0F0F0"/>
<path d="M408.609 290.299H406.004V292.907H408.609V290.299Z" fill="#F0F0F0"/>
<path d="M408.609 294.677H406.004V297.284H408.609V294.677Z" fill="#F0F0F0"/>
<path d="M408.609 299.043H406.004V301.651H408.609V299.043Z" fill="#F0F0F0"/>
<path d="M408.609 303.42H406.004V306.028H408.609V303.42Z" fill="#F0F0F0"/>
<path d="M408.609 312.175H406.004V314.782H408.609V312.175Z" fill="#F0F0F0"/>
<path d="M271.02 227.26H268.415V229.868H271.02V227.26Z" fill="#F0F0F0"/>
<path d="M271.02 231.637H268.415V234.245H271.02V231.637Z" fill="#F0F0F0"/>
<path d="M271.02 236.014H268.415V238.622H271.02V236.014Z" fill="#F0F0F0"/>
<path d="M271.02 240.391H268.415V242.999H271.02V240.391Z" fill="#F0F0F0"/>
<path d="M271.02 244.769H268.415V247.376H271.02V244.769Z" fill="#F0F0F0"/>
<path d="M271.02 249.146H268.415V251.753H271.02V249.146Z" fill="#F0F0F0"/>
<path d="M271.02 253.523H268.415V256.13H271.02V253.523Z" fill="#F0F0F0"/>
<path d="M271.02 257.9H268.415V260.508H271.02V257.9Z" fill="#F0F0F0"/>
<path d="M271.02 262.277H268.415V264.885H271.02V262.277Z" fill="#F0F0F0"/>
<path d="M271.02 266.654H268.415V269.262H271.02V266.654Z" fill="#F0F0F0"/>
<path d="M271.02 271.021H268.415V273.628H271.02V271.021Z" fill="#F0F0F0"/>
<path d="M271.02 279.775H268.415V282.383H271.02V279.775Z" fill="#F0F0F0"/>
<path d="M271.02 284.153H268.415V286.76H271.02V284.153Z" fill="#F0F0F0"/>
<path d="M271.02 288.53H268.415V291.137H271.02V288.53Z" fill="#F0F0F0"/>
<path d="M271.02 292.907H268.415V295.514H271.02V292.907Z" fill="#F0F0F0"/>
<path d="M271.02 297.284H268.415V299.891H271.02V297.284Z" fill="#F0F0F0"/>
<path d="M271.02 301.661H268.415V304.269H271.02V301.661Z" fill="#F0F0F0"/>
<path d="M271.02 306.038H268.415V308.646H271.02V306.038Z" fill="#F0F0F0"/>
<path d="M271.02 310.415H268.415V313.023H271.02V310.415Z" fill="#F0F0F0"/>
<path d="M266.877 227.26H264.272V229.868H266.877V227.26Z" fill="#F0F0F0"/>
<path d="M266.877 231.637H264.272V234.245H266.877V231.637Z" fill="#F0F0F0"/>
<path d="M266.877 236.014H264.272V238.622H266.877V236.014Z" fill="#F0F0F0"/>
<path d="M266.877 240.391H264.272V242.999H266.877V240.391Z" fill="#F0F0F0"/>
<path d="M266.877 244.769H264.272V247.376H266.877V244.769Z" fill="#F0F0F0"/>
<path d="M266.877 249.146H264.272V251.753H266.877V249.146Z" fill="#F0F0F0"/>
<path d="M266.877 253.523H264.272V256.13H266.877V253.523Z" fill="#F0F0F0"/>
<path d="M266.877 257.9H264.272V260.508H266.877V257.9Z" fill="#F0F0F0"/>
<path d="M266.877 262.277H264.272V264.885H266.877V262.277Z" fill="#F0F0F0"/>
<path d="M266.877 266.654H264.272V269.262H266.877V266.654Z" fill="#F0F0F0"/>
<path d="M266.877 271.021H264.272V273.628H266.877V271.021Z" fill="#F0F0F0"/>
<path d="M266.877 275.398H264.272V278.006H266.877V275.398Z" fill="#F0F0F0"/>
<path d="M266.877 279.775H264.272V282.383H266.877V279.775Z" fill="#F0F0F0"/>
<path d="M266.877 284.153H264.272V286.76H266.877V284.153Z" fill="#F0F0F0"/>
<path d="M266.877 288.53H264.272V291.137H266.877V288.53Z" fill="#F0F0F0"/>
<path d="M266.877 292.907H264.272V295.514H266.877V292.907Z" fill="#F0F0F0"/>
<path d="M266.877 297.284H264.272V299.891H266.877V297.284Z" fill="#F0F0F0"/>
<path d="M266.877 301.661H264.272V304.269H266.877V301.661Z" fill="#F0F0F0"/>
<path d="M266.877 306.038H264.272V308.646H266.877V306.038Z" fill="#F0F0F0"/>
<path d="M266.877 310.415H264.272V313.023H266.877V310.415Z" fill="#F0F0F0"/>
<path d="M291.418 244.308H288.813V246.915H291.418V244.308Z" fill="#F0F0F0"/>
<path d="M291.418 248.685H288.813V251.293H291.418V248.685Z" fill="#F0F0F0"/>
<path d="M291.418 253.062H288.813V255.67H291.418V253.062Z" fill="#F0F0F0"/>
<path d="M291.418 257.439H288.813V260.047H291.418V257.439Z" fill="#F0F0F0"/>
<path d="M291.418 261.816H288.813V264.424H291.418V261.816Z" fill="#F0F0F0"/>
<path d="M291.418 266.194H288.813V268.801H291.418V266.194Z" fill="#F0F0F0"/>
<path d="M291.418 270.56H288.813V273.168H291.418V270.56Z" fill="#F0F0F0"/>
<path d="M291.418 274.937H288.813V277.545H291.418V274.937Z" fill="#F0F0F0"/>
<path d="M291.418 279.315H288.813V281.922H291.418V279.315Z" fill="#F0F0F0"/>
<path d="M291.418 283.692H288.813V286.299H291.418V283.692Z" fill="#F0F0F0"/>
<path d="M287.276 244.308H284.671V246.915H287.276V244.308Z" fill="#F0F0F0"/>
<path d="M287.276 248.685H284.671V251.293H287.276V248.685Z" fill="#F0F0F0"/>
<path d="M287.276 253.062H284.671V255.67H287.276V253.062Z" fill="#F0F0F0"/>
<path d="M287.276 257.439H284.671V260.047H287.276V257.439Z" fill="#F0F0F0"/>
<path d="M287.276 261.816H284.671V264.424H287.276V261.816Z" fill="#F0F0F0"/>
<path d="M287.276 266.194H284.671V268.801H287.276V266.194Z" fill="#F0F0F0"/>
<path d="M287.276 270.56H284.671V273.168H287.276V270.56Z" fill="#F0F0F0"/>
<path d="M287.276 274.937H284.671V277.545H287.276V274.937Z" fill="#F0F0F0"/>
<path d="M287.276 279.315H284.671V281.922H287.276V279.315Z" fill="#F0F0F0"/>
<path d="M311.921 78.2379H307.549V322.311H311.921V78.2379Z" fill="#E0E0E0"/>
<path d="M394.247 78.2379H389.874V322.311H394.247V78.2379Z" fill="#E0E0E0"/>
<path d="M476.571 78.2379H472.198V322.311H476.571V78.2379Z" fill="#E0E0E0"/>
<path d="M196.968 355.36H160.785V303.18C160.785 300.635 162.846 298.562 165.398 298.562H192.366C194.908 298.562 196.979 300.624 196.979 303.18V355.36H196.968Z" fill="#F0F0F0"/>
<path d="M196.968 306.248H160.785V310.321H196.968V306.248Z" fill="#E6E6E6"/>
<path d="M190.378 348.48H181.361C179.991 348.48 178.882 349.59 178.882 350.962V355.36H192.857V350.962C192.857 349.59 191.748 348.48 190.378 348.48Z" fill="#E0E0E0"/>
<path d="M192.91 355.36H182.879C181.989 355.36 181.268 354.637 181.268 353.747C181.268 352.857 181.989 352.134 182.879 352.134H192.91C193.799 352.134 194.521 352.857 194.521 353.747C194.511 354.637 193.789 355.36 192.91 355.36Z" fill="#E6E6E6"/>
<path d="M353.553 66.7526C366.793 63.6228 374.992 50.3405 371.866 37.0858C368.739 23.831 355.471 15.6232 342.23 18.753C328.99 21.8828 320.79 35.1651 323.917 48.4198C327.043 61.6746 340.312 69.8825 353.553 66.7526Z" fill="#E0E0E0"/>
<path d="M351.268 63.4695C362.69 61.6137 370.447 50.8398 368.593 39.4052C366.739 27.9706 355.977 20.2054 344.554 22.0612C333.132 23.917 325.375 34.6909 327.229 46.1255C329.082 57.5601 339.845 65.3253 351.268 63.4695Z" fill="#F0F0F0"/>
<path d="M348.899 28.3824V43.0427L358.607 37.5451" fill="#F0F0F0"/>
<path d="M348.899 28.3824V43.0427L358.607 37.5451" stroke="#E0E0E0" stroke-width="2" stroke-miterlimit="10" stroke-linecap="round" stroke-linejoin="round"/>
<path d="M112.154 283.482C110.271 280.383 107.175 283.074 107.175 283.074C107.614 277.126 102.154 273.063 102.154 273.063C102.154 273.063 108.503 273.063 109.392 267C110.282 260.937 107.175 263.754 104.267 263.712C101.359 263.67 98.3147 272.183 102.154 276.958C105.993 281.744 104.957 289.912 96.1075 297.766C93.9421 299.682 92.4776 302.237 91.4839 304.991C92.1534 297.776 92.5299 287.608 90.4064 280.822C86.808 269.293 93.6702 266.194 95.6577 260.424C97.6556 254.654 90.4064 249.784 90.4064 249.784C90.4064 249.784 97.2163 246.685 93.8898 243.135C90.5633 239.585 83.7012 240.067 83.7012 244.706C83.7012 249.345 88.3562 251.114 88.3562 251.114C88.3562 251.114 93.6702 256.654 93.6702 259.544C93.6702 262.424 88.3562 268.633 88.3562 268.633C88.3562 268.633 90.7935 263.324 85.9188 263.094C81.0442 262.864 79.496 269.293 81.494 272.183C83.492 275.063 86.808 272.623 86.808 272.623C86.808 272.623 87.195 278.833 88.3352 282.603C88.8374 284.257 88.5968 290.76 88.1783 297.525C87.195 295.085 85.8142 292.844 83.8686 291.116C75.0084 283.262 73.9833 275.094 77.8223 270.309C81.6614 265.523 78.6173 257.02 75.7093 257.062C72.8012 257.104 69.6944 254.277 70.5836 260.35C71.4727 266.424 77.8223 266.413 77.8223 266.413C77.8223 266.413 72.3514 270.487 72.8012 276.424C72.8012 276.424 69.7049 273.723 67.822 276.833C64.4641 282.372 72.2468 285.807 73.5648 283.084C73.5648 283.084 90.0822 294.792 86.0967 311.641L87.0277 313.012C86.9126 314.374 86.8289 315.19 86.8289 315.19L88.126 314.635L89.601 316.803C89.5278 321.013 89.9776 324.123 89.9776 324.123L93.9317 318.29C89.9462 301.441 106.463 289.734 106.463 289.734C107.729 292.456 115.522 289.022 112.154 283.482Z" fill="#E0E0E0"/>
<path opacity="0.2" d="M112.154 283.482C110.271 280.383 107.175 283.074 107.175 283.074C107.614 277.126 102.154 273.063 102.154 273.063C102.154 273.063 108.503 273.063 109.392 267C110.282 260.937 107.175 263.754 104.267 263.712C101.359 263.67 98.3147 272.183 102.154 276.958C105.993 281.744 104.957 289.912 96.1075 297.766C93.9421 299.682 92.4776 302.237 91.4839 304.991C92.1534 297.776 92.5299 287.608 90.4064 280.822C86.808 269.293 93.6702 266.194 95.6577 260.424C97.6556 254.654 90.4064 249.784 90.4064 249.784C90.4064 249.784 97.2163 246.685 93.8898 243.135C90.5633 239.585 83.7012 240.067 83.7012 244.706C83.7012 249.345 88.3562 251.114 88.3562 251.114C88.3562 251.114 93.6702 256.654 93.6702 259.544C93.6702 262.424 88.3562 268.633 88.3562 268.633C88.3562 268.633 90.7935 263.324 85.9188 263.094C81.0442 262.864 79.496 269.293 81.494 272.183C83.492 275.063 86.808 272.623 86.808 272.623C86.808 272.623 87.195 278.833 88.3352 282.603C88.8374 284.257 88.5968 290.76 88.1783 297.525C87.195 295.085 85.8142 292.844 83.8686 291.116C75.0084 283.262 73.9833 275.094 77.8223 270.309C81.6614 265.523 78.6173 257.02 75.7093 257.062C72.8012 257.104 69.6944 254.277 70.5836 260.35C71.4727 266.424 77.8223 266.413 77.8223 266.413C77.8223 266.413 72.3514 270.487 72.8012 276.424C72.8012 276.424 69.7049 273.723 67.822 276.833C64.4641 282.372 72.2468 285.807 73.5648 283.084C73.5648 283.084 90.0822 294.792 86.0967 311.641L87.0277 313.012C86.9126 314.374 86.8289 315.19 86.8289 315.19L88.126 314.635L89.601 316.803C89.5278 321.013 89.9776 324.123 89.9776 324.123L93.9317 318.29C89.9462 301.441 106.463 289.734 106.463 289.734C107.729 292.456 115.522 289.022 112.154 283.482Z" fill="#E0E0E0"/>
<path d="M108.932 355.36H71.0855L67.0059 313.882H113.012L108.932 355.36Z" fill="#E6E6E6"/>
<path d="M115.031 309.305H64.9873V318.458H115.031V309.305Z" fill="#F0F0F0"/>
<path d="M272.275 402.775C384.29 402.775 475.096 397.468 475.096 390.921C475.096 384.375 384.29 379.068 272.275 379.068C160.26 379.068 69.4541 384.375 69.4541 390.921C69.4541 397.468 160.26 402.775 272.275 402.775Z" fill="#F5F5F5"/>
<path d="M440.115 357.915C440.272 356.847 443.933 331.558 436.6 322.824C434.979 320.887 432.929 319.882 430.512 319.819C415.71 319.473 413.681 331.38 413.66 331.495L415.407 331.767C415.47 331.338 417.227 321.264 430.47 321.589C432.385 321.631 433.954 322.416 435.251 323.966C442.082 332.092 438.41 357.402 438.368 357.653L440.115 357.915Z" fill="#FFBEDD"/>
<path d="M441.015 356.763L442.783 356.711C442.772 356.48 442.197 333.411 453.547 328.647C464.677 323.976 469.677 333.579 469.886 333.987L471.466 333.191C471.403 333.076 465.534 321.693 452.867 327.013C440.387 332.238 440.983 355.758 441.015 356.763Z" fill="#FFBEDD"/>
<path d="M440.962 358.574C440.962 358.208 441.067 321.725 448.17 311.054C454.99 300.813 465.994 305.63 466.465 305.839L467.197 304.227C467.072 304.164 454.373 298.561 446.705 310.07C439.309 321.18 439.194 357.046 439.194 358.574H440.962Z" fill="#FFBEDD"/>
<path d="M428.399 320.699C428.399 320.699 434.864 323.086 432.939 328.72C431.014 334.354 410.574 343.621 410.574 343.621C410.574 343.621 402.017 335.767 409.873 322.992C417.74 310.206 428.221 316.667 428.399 320.699Z" fill="#FF64AE"/>
<path d="M448.493 309.127C448.493 309.127 443.901 308.635 444.278 305.839C444.644 303.043 462.113 295.839 472.427 307.483C472.427 307.483 465.827 318.835 456.287 318.981C446.736 319.128 448.493 309.127 448.493 309.127Z" fill="#FF64AE"/>
<path d="M453.202 327.819C453.202 327.819 450.032 325.264 453.453 324.008C456.873 322.761 473.642 323.117 473.82 339.746C473.82 339.746 454.29 342.993 451.873 336.657C449.446 330.332 453.202 327.819 453.202 327.819Z" fill="#FF64AE"/>
<path d="M424.916 391.791H455.231L458.505 358.564H421.652L424.916 391.791Z" fill="#ACB5FF"/>
<path d="M420.038 362.239H460.123V354.909H420.038V362.239Z" fill="#4754C7"/>
<path d="M390.615 367.978L360.478 365.015V322.615H348.532V365.004L318.27 367.978C315.267 368.271 312.977 370.805 312.977 373.821V378.355H353.334H355.551H395.908V373.821C395.908 370.805 393.617 368.271 390.615 367.978Z" fill="#263238"/>
<path opacity="0.2" d="M390.615 367.978L360.478 365.015V322.615H348.532V365.004L318.27 367.978C315.267 368.271 312.977 370.805 312.977 373.821V378.355H353.334H355.551H395.908V373.821C395.908 370.805 393.617 368.271 390.615 367.978Z" fill="white"/>
<path d="M316.157 391.801C320.472 391.801 323.971 388.299 323.971 383.979C323.971 379.659 320.472 376.156 316.157 376.156C311.841 376.156 308.343 379.659 308.343 383.979C308.343 388.299 311.841 391.801 316.157 391.801Z" fill="#263238"/>
<path d="M392.718 391.801C397.034 391.801 400.532 388.299 400.532 383.979C400.532 379.659 397.034 376.156 392.718 376.156C388.403 376.156 384.904 379.659 384.904 383.979C384.904 388.299 388.403 391.801 392.718 391.801Z" fill="#263238"/>
<path d="M358.209 331.725H350.792C348.407 331.725 346.472 329.788 346.472 327.4V293.964H362.529V327.4C362.529 329.788 360.594 331.725 358.209 331.725Z" fill="#263238"/>
<path opacity="0.3" d="M358.209 331.725H350.792C348.407 331.725 346.472 329.788 346.472 327.4V293.964H362.529V327.4C362.529 329.788 360.594 331.725 358.209 331.725Z" fill="white"/>
<path d="M383.052 227.679C383.052 227.679 385.332 284.226 369.6 293.954H387.55C387.55 293.954 401.463 274.686 397.53 227.679H383.052Z" fill="#263238"/>
<path opacity="0.3" d="M383.052 227.679C383.052 227.679 385.332 284.226 369.6 293.954H387.55C387.55 293.954 401.463 274.686 397.53 227.679H383.052Z" fill="white"/>
<path d="M318.447 286.048H388.449C391.337 286.048 393.68 288.393 393.68 291.284V298.289H313.217V291.284C313.217 288.393 315.55 286.048 318.447 286.048Z" fill="#263238"/>
<path d="M311.962 292.174H394.925C396.086 292.174 397.028 293.116 397.028 294.279V296.184C397.028 297.347 396.086 298.289 394.925 298.289H311.962C310.801 298.289 309.859 297.347 309.859 296.184V294.279C309.859 293.116 310.801 292.174 311.962 292.174Z" fill="#263238"/>
<path opacity="0.6" d="M311.962 292.174H394.925C396.086 292.174 397.028 293.116 397.028 294.279V296.184C397.028 297.347 396.086 298.289 394.925 298.289H311.962C310.801 298.289 309.859 297.347 309.859 296.184V294.279C309.859 293.116 310.801 292.174 311.962 292.174Z" fill="white"/>
<path d="M401.944 239.166H373.177C364.757 239.166 357.926 232.328 357.926 223.899V212.642C357.926 204.212 364.757 197.374 373.177 197.374H401.934C410.354 197.374 417.185 204.212 417.185 212.642V223.899C417.196 232.328 410.365 239.166 401.944 239.166Z" fill="#263238"/>
<path d="M285.926 151.162L280.183 136.01C280.183 136.01 282.642 133.727 280.958 131.413C279.273 129.099 268.677 122.585 266.742 123.737C264.806 124.879 260.528 129.193 262.84 131.591C265.162 133.989 275.424 137.979 275.424 137.979L280.497 157.864L285.926 151.162Z" fill="#FFCCAF"/>
<path d="M326.033 179.971C326.033 179.971 299.913 174.599 297.078 173.311C294.243 172.023 283.73 141.205 283.73 141.205L275.676 144.974C275.676 144.974 282.161 175.908 288.793 183.269C295.425 190.62 323.721 196.851 323.721 196.851L326.033 179.971Z" fill="#4754C7"/>
<path d="M283.855 140.597L285.518 143.811L275.162 147.382L275.56 143.455L283.855 140.597Z" fill="#4754C7"/>
<path d="M362.854 158.629C362.854 158.629 364.392 173.111 359.025 176.671C353.67 180.232 327.298 176.064 324.307 170.231C321.315 164.409 332.571 148.586 332.571 148.586L362.854 158.629Z" fill="#263238"/>
<path d="M256.166 349.192L263.039 350.857L266.522 341.349L269.681 332.699L261.846 329.359L258.833 339.851L256.166 349.192Z" fill="#FFCCAF"/>
<path opacity="0.2" d="M258.833 339.851L266.522 341.349L269.681 332.699L261.846 329.359L258.833 339.851Z" fill="black"/>
<path d="M259.523 334.835L269.064 338.385C269.064 338.385 294.514 274.686 299.745 274.466C304.975 274.246 358.23 298.75 371.578 285.158C384.925 271.576 365.626 238.831 365.626 238.831C365.626 238.831 333.522 234.245 331.105 241.501C330.635 242.905 330.122 245.659 329.746 248.015C329.379 250.235 329.128 252.099 329.128 252.099C329.128 252.099 329.118 252.099 329.107 252.088C328.114 251.837 295.885 243.512 283.185 252.099C270.287 260.832 259.523 334.835 259.523 334.835Z" fill="#ACB5FF"/>
<path d="M314.4 376.366L321.251 374.607L319.933 364.763L318.709 355.737L310.236 356.501L312.433 367.025L314.4 376.366Z" fill="#FFCCAF"/>
<path opacity="0.2" d="M312.486 367.235L319.986 364.952L318.731 355.831L310.247 356.553L312.486 367.235Z" fill="black"/>
<path d="M273.008 334.846L259.116 330.123L258.52 335.82L269.053 339.548L273.008 334.846Z" fill="#4754C7"/>
<path d="M348.522 288.425C348.522 288.425 346.347 288.477 312.674 286.906C312.674 286.906 317.705 329.055 320.457 360.595L310.383 362.313C310.383 362.313 286.324 294.76 286.585 284.027C286.847 273.293 299.138 270.152 299.138 270.152C299.138 270.152 323.134 284.027 348.522 288.425Z" fill="#919CFF"/>
<path d="M321.932 357.538L308.093 359.119L310.76 364.543L321.964 363.109L321.932 357.538Z" fill="#4754C7"/>
<path opacity="0.1" d="M329.129 252.099L347.906 256.015C347.906 256.015 337.529 250.277 329.746 248.015C329.38 250.235 329.129 252.099 329.129 252.099Z" fill="black"/>
<path d="M364.851 233.837L365.625 238.832L331.105 241.502L330.195 235.586L364.851 233.837Z" fill="#263238"/>
<path opacity="0.2" d="M364.851 233.837L365.625 238.832L331.105 241.502L330.195 235.586L364.851 233.837Z" fill="black"/>
<path d="M353.941 242.199L355.647 242.023L354.754 233.325L353.047 233.5L353.941 242.199Z" fill="#407BFF"/>
<path d="M338.66 241.319L346.218 240.833L345.85 235.097L338.292 235.582L338.66 241.319Z" fill="white"/>
<path d="M332.803 243.136L334.51 242.96L333.616 234.263L331.91 234.438L332.803 243.136Z" fill="#407BFF"/>
<path opacity="0.6" d="M353.941 242.199L355.647 242.023L354.754 233.325L353.047 233.5L353.941 242.199Z" fill="white"/>
<path opacity="0.6" d="M332.803 243.136L334.51 242.96L333.616 234.263L331.91 234.438L332.803 243.136Z" fill="white"/>
<path d="M325.405 179.488C325.405 179.488 334.213 182.253 345.29 181.687C356.368 181.122 369.611 186.504 369.611 186.504L364.852 233.826L330.196 235.575C330.196 235.585 318.553 196.065 325.405 179.488Z" fill="#ACB5FF"/>
<path d="M330.97 152.765C330.97 152.765 332.915 129.779 352.111 138.136C376.201 148.618 357.048 176.609 345.28 170.86C333.512 165.121 330.97 152.765 330.97 152.765Z" fill="#263238"/>
<path opacity="0.2" d="M336.347 182.975L336.901 195.96L341.2 189.855C341.2 189.855 339.663 204.222 340.562 212.034C340.562 212.034 341.389 198.013 343.334 189.855L347.906 195.96L354.464 183.059C354.475 183.059 343.857 179.237 336.347 182.975Z" fill="black"/>
<path d="M342.299 185.394L352.226 182.588C346.106 178.378 349.192 168.954 349.192 168.954L339.359 172.409C339.882 174.043 340.217 175.425 340.416 176.619C341.441 182.755 338.669 183.248 338.669 183.248L342.299 185.394Z" fill="#FFCCAF"/>
<path opacity="0.2" d="M339.359 172.409C339.882 174.043 340.217 175.425 340.416 176.619C345.123 174.734 349.192 168.954 349.192 168.954L339.359 172.409Z" fill="black"/>
<path d="M345.772 142.963C337.069 141.036 333.23 145.078 330.605 153.916C327.33 164.964 328.052 173.488 339.465 173.498C354.978 173.519 360.229 146.167 345.772 142.963Z" fill="#FFCCAF"/>
<path d="M336.347 154.681C336.347 154.681 334.642 156.691 333.01 157.739C333.01 157.739 333.491 159.09 335.091 159.236L336.347 154.681Z" fill="#DE5753"/>
<path d="M341.828 155.143C341.65 155.855 341.891 156.525 342.372 156.64C342.843 156.755 343.376 156.274 343.544 155.562C343.721 154.85 343.481 154.179 343 154.064C342.529 153.949 342.006 154.431 341.828 155.143Z" fill="#263238"/>
<path d="M343.198 154.147L341.796 153.163C341.796 153.163 342.246 154.66 343.198 154.147Z" fill="#263238"/>
<path d="M333.02 152.818C332.843 153.53 333.083 154.2 333.564 154.315C334.035 154.431 334.569 153.949 334.736 153.237C334.914 152.525 334.673 151.855 334.192 151.739C333.721 151.624 333.198 152.106 333.02 152.818Z" fill="#263238"/>
<path d="M334.39 151.822L332.988 150.838C332.988 150.838 333.438 152.325 334.39 151.822Z" fill="#263238"/>
<path d="M343.251 149.141C343.251 149.141 345.772 149.361 346.734 151.299" stroke="#263238" stroke-width="0.7247" stroke-miterlimit="10" stroke-linecap="round" stroke-linejoin="round"/>
<path d="M337.006 147.372C337.006 147.372 335.594 146.461 333.376 147.319" stroke="#263238" stroke-width="0.7247" stroke-miterlimit="10" stroke-linecap="round" stroke-linejoin="round"/>
<path d="M352.037 159.76C352.037 159.76 349.548 151.697 351.389 146.304C351.389 146.304 335.698 135.424 330.97 152.765C330.97 152.765 332.727 136.827 347.769 139.79C362.791 142.754 357.906 164.66 348.732 169.477C348.732 169.488 353.565 164.797 352.037 159.76Z" fill="#263238"/>
<path d="M350.207 161.278C350.573 159.885 352.551 157.833 355.092 158.692C357.729 159.582 357.781 165.414 350.783 165.257C349.779 165.247 349.444 164.189 350.207 161.278Z" fill="#E4897B"/>
<path d="M333.533 162.535C333.837 163.687 333.983 165.77 333.983 165.77C334.171 165.791 334.37 165.812 334.558 165.823C337.153 166.043 338.439 165.289 339.067 164.378C339.412 163.886 339.548 163.331 339.611 162.88C339.684 162.357 339.611 161.969 339.611 161.969C338.167 162.671 335.719 162.66 334.422 162.587C333.868 162.577 333.533 162.535 333.533 162.535Z" fill="#263238"/>
<path d="M334.424 162.597L334.581 163.55C337.029 163.749 338.786 163.571 339.612 162.891C339.685 162.367 339.612 161.98 339.612 161.98C338.158 162.681 335.721 162.66 334.424 162.597Z" fill="white"/>
<path d="M334.559 165.833C337.153 166.053 338.439 165.299 339.067 164.388C338.178 164.346 337.1 164.399 336.128 164.713C335.385 164.954 334.893 165.383 334.559 165.833Z" fill="#DE5753"/>
<path d="M345.803 143.654C345.803 143.654 346.138 158.775 355.197 160.587C364.256 162.399 354.35 141.162 354.35 141.162C354.35 141.162 340.855 132.345 331.87 138.555C322.874 144.775 330.96 152.765 330.96 152.765C330.96 152.765 332.874 141.539 345.803 143.654Z" fill="#263238"/>
<path d="M346.117 142.66C346.117 142.66 342.885 152.22 349.266 157.236" stroke="#263238" stroke-width="0.5" stroke-miterlimit="10" stroke-linecap="round" stroke-linejoin="round"/>
<path d="M357.843 163.697C356.692 166.776 353.732 168.504 351.232 167.561C348.732 166.619 347.644 163.372 348.795 160.294C349.945 157.215 352.906 155.487 355.406 156.43C357.906 157.372 359.004 160.629 357.843 163.697Z" fill="#407BFF"/>
<path opacity="0.4" d="M357.843 163.697C356.692 166.776 353.732 168.504 351.232 167.561C348.732 166.619 347.644 163.372 348.795 160.294C349.945 157.215 352.906 155.487 355.406 156.43C357.906 157.372 359.004 160.629 357.843 163.697Z" fill="black"/>
<path d="M354.966 158.66C354.966 158.66 358.722 141.832 350.301 137.424C350.301 137.424 352.058 137.665 353.146 137.979C354.234 138.293 360.96 145.12 357.56 160.241L354.966 158.66Z" fill="white"/>
<path d="M339.171 168.294C338.961 168.263 338.752 168.231 338.543 168.2L338.71 167.163C346.294 168.399 351.933 164.388 351.985 164.346L352.602 165.195C352.372 165.362 346.891 169.31 339.171 168.294Z" fill="white"/>
<path d="M357.498 163.278C356.734 165.31 354.778 166.451 353.126 165.833C351.473 165.215 350.751 163.058 351.515 161.027C352.278 158.995 354.234 157.854 355.887 158.472C357.54 159.1 358.262 161.247 357.498 163.278Z" fill="#407BFF"/>
<path d="M338.24 168.629L337.403 168.514C336.775 168.43 336.336 167.865 336.419 167.237C336.503 166.608 337.068 166.168 337.696 166.252L338.532 166.367C339.16 166.451 339.589 167.017 339.516 167.645C339.432 168.273 338.857 168.713 338.24 168.629Z" fill="#407BFF"/>
<path opacity="0.4" d="M338.24 168.629L337.403 168.514C336.775 168.43 336.336 167.865 336.419 167.237C336.503 166.608 337.068 166.168 337.696 166.252L338.532 166.367C339.16 166.451 339.589 167.017 339.516 167.645C339.432 168.273 338.857 168.713 338.24 168.629Z" fill="black"/>
<path d="M349.558 178.986L343.345 185.091L345.824 192.578L354.475 183.059L349.558 178.986Z" fill="#4754C7"/>
<path d="M340.573 180.263L341.577 184.965L338.355 191.614L336.347 182.975L340.573 180.263Z" fill="#4754C7"/>
<path d="M348.229 184.284L351.838 171.059C351.838 171.059 350.091 167.76 350.468 167.079C350.845 166.388 352.728 157.508 354.066 156.545C355.405 155.581 360.908 157.226 361.473 158.126C362.027 159.027 356.2 171.059 356.2 171.059L354.077 185.384L348.229 184.284Z" fill="#FFCCAF"/>
<path d="M369.611 186.504C379.538 196.683 359.632 219.741 348.23 218.757C336.828 217.773 348.512 175.97 348.512 175.97L355.814 177.174C355.814 177.174 353.251 195.269 354.056 196.683C354.872 198.107 366.274 183.091 369.611 186.504Z" fill="#4754C7"/>
<path d="M347.906 174.629L346.828 178.085L357.006 178.986V175.97L347.906 174.629Z" fill="#4754C7"/>
<path opacity="0.6" d="M332.487 211.416H328.365C327.905 211.416 327.539 211.05 327.539 210.589V202.798C327.539 202.338 327.905 201.971 328.365 201.971H332.487C332.947 201.971 333.313 202.338 333.313 202.798V210.589C333.313 211.05 332.947 211.416 332.487 211.416Z" fill="white"/>
<path opacity="0.2" d="M332.57 202.589H327.884V209.008H332.57V202.589Z" fill="black"/>
<path d="M330.844 199.699H329.809V203.479H330.844V199.699Z" fill="#263238"/>
<path d="M244.774 362.575C245.82 362.093 246.95 361.81 248.09 361.726C248.09 361.726 252.065 359.381 255.998 350.291L260.423 350.27C261.961 350.291 263.31 351.265 263.823 352.71C263.896 352.909 263.938 353.119 263.948 353.328C263.907 354.396 263.792 355.464 263.603 356.522C263.206 359.842 261.019 366.952 261.019 366.952L260.266 366.763L261.626 360.145C262.076 357.894 259.722 360.072 258.624 362.334C257.526 364.596 255.852 366.878 250.956 365.758C245.287 364.418 242.985 363.601 244.774 362.575Z" fill="#172176"/>
<path d="M256.804 347.904C256.804 347.904 251.27 359.486 248.09 361.726C248.09 361.726 252.358 364.271 256.804 358.606C262.546 351.276 263.959 353.318 263.959 353.318C263.959 353.318 263.718 350.805 263.268 349.579C262.4 347.213 256.804 347.904 256.804 347.904Z" fill="#FFCCAF"/>
<path d="M305.675 390.167C306.575 389.455 307.6 388.911 308.698 388.555C308.698 388.555 312.004 385.34 313.678 375.57L317.977 374.491C319.473 374.146 321.021 374.764 321.858 376.052C321.973 376.23 322.067 376.418 322.13 376.617C322.339 377.664 322.486 378.732 322.559 379.801C322.956 383.12 322.517 390.544 322.517 390.544L321.743 390.534L321.502 383.78C321.408 381.486 319.63 384.157 319.107 386.617C318.584 389.078 317.485 391.696 312.475 391.77C306.606 391.843 304.179 391.592 305.675 390.167Z" fill="#172176"/>
<path d="M313.888 373.067C313.888 373.067 311.262 385.633 308.699 388.555C308.699 388.555 313.448 390.021 316.419 383.455C320.269 374.963 322.12 376.628 322.12 376.628C322.12 376.628 321.294 374.251 320.562 373.161C319.16 371.067 313.888 373.067 313.888 373.067Z" fill="#FFCCAF"/>
<path d="M411.15 145.864H374.622C371.693 145.864 369.318 143.487 369.318 140.555V124.91C369.318 121.978 371.693 119.601 374.622 119.601H411.15C414.079 119.601 416.443 121.978 416.443 124.91V140.555C416.454 143.487 414.079 145.864 411.15 145.864Z" fill="#FF64AE"/>
<path d="M381.955 142.869L370.961 157.843L388.713 143.874L381.955 142.869Z" fill="#FF64AE"/>
<path d="M382.373 132.732C382.373 133.581 381.682 134.282 380.825 134.282C379.967 134.282 379.276 133.591 379.276 132.732C379.276 131.884 379.967 131.183 380.825 131.183C381.682 131.183 382.373 131.884 382.373 132.732Z" fill="white"/>
<path d="M390.417 132.732C390.417 133.581 389.726 134.282 388.869 134.282C388.021 134.282 387.32 133.591 387.32 132.732C387.32 131.884 388.011 131.183 388.869 131.183C389.726 131.193 390.417 131.884 390.417 132.732Z" fill="white"/>
<path d="M398.461 132.732C398.461 133.581 397.77 134.282 396.912 134.282C396.055 134.282 395.364 133.591 395.364 132.732C395.364 131.884 396.055 131.183 396.912 131.183C397.77 131.183 398.461 131.884 398.461 132.732Z" fill="white"/>
<path d="M406.495 132.732C406.495 133.581 405.804 134.282 404.947 134.282C404.089 134.282 403.398 133.591 403.398 132.732C403.398 131.884 404.089 131.183 404.947 131.183C405.804 131.183 406.495 131.884 406.495 132.732Z" fill="white"/>
<path d="M264.355 125.214L238.309 111.171C237.608 110.794 237.336 109.915 237.723 109.203L246.028 93.7674C246.405 93.0658 247.284 92.7936 247.995 93.181L274.042 107.224C274.743 107.6 275.015 108.48 274.628 109.192L266.322 124.627C265.945 125.329 265.067 125.601 264.355 125.214Z" fill="#ACB5FF"/>
<path opacity="0.2" d="M245.349 95.045L253.497 110.281C254.136 111.465 255.422 112.156 256.751 112.02L273.707 110.344L256.437 112.889C254.889 113.119 253.372 112.302 252.713 110.878L245.349 95.045Z" fill="black"/>
<path d="M225.568 92.2071C225.84 86.3849 230.15 74.6461 235.39 71.0544C240.631 67.4626 237.179 72.4366 237.179 72.4366C237.179 72.4366 242.148 67.5987 244.763 67.7453C247.389 67.8815 244.763 70.9182 244.763 70.9182C244.763 70.9182 250.14 67.5987 252.629 67.7348C255.109 67.871 252.629 70.7716 252.629 70.7716C252.629 70.7716 257.044 67.5987 258.833 69.1171C260.621 70.6355 235.934 86.9294 233.173 93.558C230.422 100.187 225.285 98.1027 225.568 92.2071Z" fill="#FF64AE"/>
<path d="M246.772 91.3484L250.067 93.4637C250.307 93.6207 250.182 93.9872 249.9 93.9663L246.437 93.694L246.73 96.3538C246.761 96.647 246.406 96.8041 246.207 96.5842L244.209 94.3223L246.772 91.3484Z" fill="#407BFF"/>
<path opacity="0.3" d="M246.772 91.3484L250.067 93.4637C250.307 93.6207 250.182 93.9872 249.9 93.9663L246.437 93.694L246.73 96.3538C246.761 96.647 246.406 96.8041 246.207 96.5842L244.209 94.3223L246.772 91.3484Z" fill="white"/>
<path d="M200.494 78.2379C200.494 78.2379 205.045 75.065 211.949 77.1279C211.949 77.1279 213.936 86.2382 219.355 89.275C222.336 90.94 229.627 90.8039 235.401 88.9295C242.253 86.7095 245.611 86.7095 246.856 89.275C248.027 91.7044 246.72 94.5213 241.479 95.7674C236.238 97.0136 232.096 106.124 222.576 106.26C213.057 106.396 208.047 96.846 210.442 88.4478C210.421 88.4478 207.524 82.1962 200.494 78.2379Z" fill="#FFBEDD"/>
<path d="M244.219 91.0029C244.219 91.2647 244.01 91.4636 243.759 91.4636C243.508 91.4636 243.288 91.2542 243.288 91.0029C243.288 90.7411 243.497 90.5317 243.759 90.5317C244.02 90.5317 244.219 90.7516 244.219 91.0029Z" fill="#263238"/>
<path d="M220.348 98.6786C214.73 100.218 202.24 99.7362 197.209 95.8512C192.177 91.9663 197.972 93.715 197.972 93.715C197.972 93.715 191.842 90.4793 191.173 87.9452C190.493 85.411 194.186 86.9608 194.186 86.9608C194.186 86.9608 189.374 82.8664 188.736 80.4579C188.108 78.0494 191.623 79.5155 191.623 79.5155C191.623 79.5155 187.24 76.2902 188.129 74.1121C189.018 71.934 212.125 90.4165 219.27 91.0029C226.436 91.5893 226.038 97.1288 220.348 98.6786Z" fill="#FF64AE"/>
<path d="M183.537 72.8137C182.554 72.4681 181.56 72.133 180.556 71.8293" stroke="#407BFF" stroke-width="0.75" stroke-linecap="round" stroke-linejoin="round"/>
<path d="M174.436 70.269C170.775 69.5046 167.04 69.002 163.337 68.7402C153.17 68.0281 137.217 67.0228 130.993 77.1699C125.313 86.4163 135.083 102.187 138.546 110.773C142.793 121.287 147.845 134.282 142.824 145.414C132.51 168.284 88.3767 156.409 73.4912 135.34" stroke="#407BFF" stroke-width="0.75" stroke-linecap="round" stroke-linejoin="round" stroke-dasharray="6.03 6.03"/>
<path d="M71.8073 132.691C71.2842 131.769 70.8135 130.827 70.416 129.874" stroke="#407BFF" stroke-width="0.75" stroke-linecap="round" stroke-linejoin="round"/>
<path d="M198.852 215.835H159.144V223.982H198.852V215.835Z" fill="white"/>
<path opacity="0.1" d="M198.852 215.835H159.144V223.982H198.852V215.835Z" fill="black"/>
<path opacity="0.1" d="M175.87 215.835H159.144V223.982H175.87V215.835Z" fill="black"/>
<path opacity="0.1" d="M159.144 217.008H194.49L159.144 218.013V217.008Z" fill="black"/>
<path opacity="0.1" d="M198.852 218.422L168.213 219.186H198.852V218.422Z" fill="black"/>
<path opacity="0.1" d="M160.765 220.705L175.87 220.087L198.078 220.705L175.87 221.05L160.765 220.705Z" fill="black"/>
<path opacity="0.1" d="M159.144 222.432H185.316L159.144 223.05V222.432Z" fill="black"/>
<path opacity="0.1" d="M198.8 223.05L181.32 223.375H198.852L198.8 223.05Z" fill="black"/>
<path d="M193.329 207.688H153.62V215.835H193.329V207.688Z" fill="white"/>
<path opacity="0.1" d="M193.329 207.688H153.62V215.835H193.329V207.688Z" fill="black"/>
<path opacity="0.1" d="M170.347 207.688H153.62V215.835H170.347V207.688Z" fill="black"/>
<path opacity="0.1" d="M153.62 208.861H188.967L153.62 209.856V208.861Z" fill="black"/>
<path opacity="0.1" d="M193.329 210.275L162.689 211.029H193.329V210.275Z" fill="black"/>
<path opacity="0.1" d="M155.241 212.547L170.346 211.93L192.554 212.547L170.346 212.893L155.241 212.547Z" fill="black"/>
<path opacity="0.1" d="M153.62 214.275H179.793L153.62 214.903V214.275Z" fill="black"/>
<path opacity="0.1" d="M193.266 214.904L175.797 215.228H193.329L193.266 214.904Z" fill="black"/>
<path d="M197.858 199.531H158.149V207.678H197.858V199.531Z" fill="white"/>
<path opacity="0.1" d="M197.858 199.531H158.149V207.678H197.858V199.531Z" fill="black"/>
<path opacity="0.1" d="M174.876 199.531H158.149V207.678H174.876V199.531Z" fill="black"/>
<path opacity="0.1" d="M158.149 200.704H193.496L158.149 201.709V200.704Z" fill="black"/>
<path opacity="0.1" d="M197.858 202.118L167.219 202.882H197.858V202.118Z" fill="black"/>
<path opacity="0.1" d="M159.771 204.4L174.876 203.782L197.083 204.4L174.876 204.746L159.771 204.4Z" fill="black"/>
<path opacity="0.1" d="M158.149 206.128H184.322L158.149 206.746V206.128Z" fill="black"/>
<path opacity="0.1" d="M197.806 206.746L180.326 207.071H197.858L197.806 206.746Z" fill="black"/>
<path d="M224.313 223.815L225.349 219.909H267.767L287.297 221.867L288.039 223.815H224.313Z" fill="#263238"/>
<path opacity="0.4" d="M267.767 219.909V223.815H224.313L225.349 219.909H267.767Z" fill="black"/>
<path d="M259.241 201.217C259.43 203.28 257.923 204.955 255.873 204.955H190.892C188.831 204.955 187.011 203.28 186.822 201.217L182.963 159.571C182.921 159.142 182.952 158.734 183.046 158.357C183.412 156.891 184.699 155.833 186.331 155.833H251.312C253.373 155.833 255.193 157.508 255.381 159.571L259.241 201.217Z" fill="#263238"/>
<path opacity="0.4" d="M255.643 204.955H190.892C188.831 204.955 187.011 203.28 186.822 201.217L182.963 159.571C182.921 159.142 182.952 158.734 183.046 158.357H247.797C249.848 158.357 251.668 160.032 251.867 162.095L255.727 203.741C255.768 204.17 255.737 204.578 255.643 204.955Z" fill="white"/>
<path d="M210.997 179.415H224.449L220.861 217.94L242.117 221.134V223.815H197.346V221.134L206.52 217.94L210.997 179.415Z" fill="#263238"/>
<path opacity="0.1" d="M224.449 179.415L214.48 223.208L206.52 222.967L210.997 179.415H224.449Z" fill="white"/>
<path d="M224.387 391.791H217.974L206.457 231.313H214.962L224.387 391.791Z" fill="#263238"/>
<path opacity="0.4" d="M224.387 391.79H217.974L207.022 239.291L206.457 231.574H214.962L215.422 239.291L224.387 391.79Z" fill="white"/>
<path opacity="0.2" d="M215.422 238.904H207.022L206.457 231.574H214.961L215.422 238.904Z" fill="black"/>
<path d="M271.417 391.791H265.005L263.959 231.313H272.463L271.417 391.791Z" fill="#263238"/>
<path opacity="0.5" d="M272.463 231.574L272.296 257.47L271.417 391.79H265.005L264.126 257.47L263.959 231.574H272.463Z" fill="white"/>
<path opacity="0.2" d="M272.463 231.574L272.296 257.753H264.126L263.959 231.574H272.463Z" fill="black"/>
<path d="M339.453 391.791H333.041L321.523 231.313H330.028L339.453 391.791Z" fill="#263238"/>
<path opacity="0.5" d="M339.453 391.79H333.041L322.088 239.291L321.523 231.574H330.028L330.488 239.291L339.453 391.79Z" fill="white"/>
<path opacity="0.2" d="M330.488 238.904H322.088L321.523 231.574H330.028L330.488 238.904Z" fill="black"/>
<path d="M151.068 391.791H144.666L154.081 231.313H162.585L151.068 391.791Z" fill="#263238"/>
<path opacity="0.5" d="M162.585 231.574L162.02 239.291L151.068 391.79H144.666L153.62 239.291L154.081 231.574H162.585Z" fill="white"/>
<path opacity="0.2" d="M154.08 231.574H162.585L162.02 238.905H153.62L154.08 231.574Z" fill="black"/>
<path d="M334.505 235.334H149.603C148.358 235.334 147.344 234.318 147.344 233.072V227.302H336.765V233.072C336.765 234.318 335.76 235.334 334.505 235.334Z" fill="#FF64AE"/>
<path opacity="0.2" d="M336.765 227.302H147.344V231.323H336.765V227.302Z" fill="black"/>
<path d="M340.74 228.349H143.369C142.124 228.349 141.109 227.333 141.109 226.087C141.109 224.841 142.124 223.825 143.369 223.825H340.74C341.984 223.825 342.999 224.841 342.999 226.087C342.999 227.333 341.984 228.349 340.74 228.349Z" fill="#FF64AE"/>
<path d="M294.044 216.841L296.471 213.197C296.952 212.474 297.768 212.034 298.647 212.034H301.722C301.984 212.034 302.235 212.076 302.475 212.149L313.448 215.479C314.076 215.668 314.599 216.087 314.934 216.642L316.503 219.291L294.044 216.841Z" fill="#407BFF"/>
<path opacity="0.2" d="M316.513 219.291L300.54 217.553L294.044 216.841L296.471 213.197C296.952 212.474 297.768 212.034 298.647 212.034H301.722C301.984 212.034 302.235 212.076 302.486 212.149L302.726 212.223L313.448 215.479C314.076 215.668 314.61 216.076 314.944 216.642L316.513 219.291Z" fill="black"/>
<path opacity="0.2" d="M316.513 219.291L300.54 217.553L302.726 212.223L313.448 215.479C314.076 215.668 314.61 216.076 314.944 216.642L316.513 219.291Z" fill="black"/>
<path d="M324.108 223.469V223.815H310.185H290.194L291.45 218.904C291.941 217.061 293.615 215.773 295.519 215.773H310.561C311.063 215.773 311.555 215.856 312.026 216.034L313.909 216.736L321.377 219.521C323.02 220.139 324.108 221.71 324.108 223.469Z" fill="#407BFF"/>
<path opacity="0.2" d="M324.108 223.469V223.815H310.185L310.927 218.506C311.126 217.103 312.58 216.244 313.909 216.736L321.377 219.522C323.02 220.139 324.108 221.71 324.108 223.469Z" fill="black"/>
<path d="M312.35 220.213L316.774 206.903C316.963 206.327 317.622 206.065 318.166 206.338C318.574 206.547 318.783 207.018 318.668 207.469L314.933 221.679C314.944 221.668 312.454 222.673 312.35 220.213Z" fill="#263238"/>
<path opacity="0.2" d="M294.044 222.715H292.077L292.454 220.778H294.42L294.044 222.715Z" fill="black"/>
<path opacity="0.2" d="M296.972 222.642H295.006L295.382 220.705H297.349L296.972 222.642Z" fill="black"/>
</svg>
