<svg width="166" height="166" viewBox="0 0 166 166" fill="none" xmlns="http://www.w3.org/2000/svg">
<circle cx="83" cy="83" r="83" fill="url(#paint0_linear_101_4437)"/>
<path d="M43.8183 93.2554C44.412 93.479 45.0829 93.1937 45.3296 92.6077L55.7624 67.7325L52.0535 66.3291L43.1243 91.7518C42.9084 92.3609 43.2169 93.024 43.8183 93.2554Z" fill="#364154"/>
<path d="M55.7547 58.7494L58.0448 59.6207L55.7624 67.7325L52.0535 66.3291L55.7547 58.7494Z" fill="#131F2D"/>
<path d="M57.0501 52.1797L61.5687 53.8915C62.4554 54.2231 62.6713 55.372 61.9774 56.012L61.5224 56.7291C60.7976 57.8626 59.7798 58.7725 58.5769 59.3662L58.0526 59.6207L55.7624 58.7493L55.6313 58.4178C55.1301 57.184 54.9759 55.8269 55.1764 54.5084L55.3383 53.4597C55.2612 52.5344 56.1788 51.8481 57.0501 52.1797Z" fill="#131F2D"/>
<path d="M25.5513 113.867H51.5446C52.1923 113.867 52.7244 113.342 52.7244 112.687V97.3576C52.7244 96.7099 52.2 96.1779 51.5446 96.1779H25.5513C24.9036 96.1779 24.3716 96.7022 24.3716 97.3576V112.687C24.3793 113.342 24.9036 113.867 25.5513 113.867Z" fill="#9DA8ED"/>
<path d="M24.3731 109.34H52.7181V103.349H24.3731V109.34Z" fill="#4754C7"/>
<path d="M24.3731 101.135H52.7181V100.124H24.3731V101.135Z" fill="#4754C7"/>
<path d="M102.683 108.13L114.558 103.133L103.732 67.4164L84.7166 75.4125L102.683 108.13Z" fill="#FF64AE"/>
<path d="M103.446 93.3326C106.839 91.9061 108.435 87.9967 107.009 84.5962C105.582 81.2034 101.673 79.6073 98.2723 81.0338C94.8795 82.4603 93.2834 86.3697 94.7099 89.7702C96.1364 93.1629 100.053 94.7591 103.446 93.3326Z" fill="#C63CC0"/>
<path d="M88.2794 79.2113L104.05 72.5759L103.712 71.7728L87.9415 78.4082L88.2794 79.2113Z" fill="#A0462D"/>
<path d="M107.448 117.097L117.696 112.787C118.128 112.602 118.336 112.101 118.151 111.669L114.558 103.133L102.737 108.107L106.33 116.642C106.515 117.074 107.016 117.282 107.448 117.097Z" fill="#C63CC0"/>
<path d="M68.439 104.914L83.2593 105.022C84.146 105.03 84.8863 104.351 84.9634 103.465L88.4024 61.2015L64.0284 60.9933L66.7581 103.326C66.8121 104.22 67.5446 104.914 68.439 104.914Z" fill="#FFA9D6"/>
<path d="M75.9802 94.227C80.3369 94.2655 83.8916 90.7648 83.9301 86.4082C83.9687 82.0516 80.468 78.4969 76.1113 78.4583C71.7547 78.4198 68.2 81.9205 68.1614 86.2771C68.1229 90.6337 71.6236 94.1962 75.9802 94.227Z" fill="#FFD2EC"/>
<path d="M66.1041 66.7797L86.3297 66.9493L86.3383 65.9238L66.1127 65.7542L66.1041 66.7797Z" fill="#131F2D"/>
<path d="M66.0694 75.3221L86.295 75.4918L86.3369 70.4952L66.1114 70.3255L66.0694 75.3221Z" fill="#FFD2EC"/>
<path d="M69.2179 116.874L82.3572 116.982C82.9124 116.989 83.3673 116.534 83.375 115.979L83.4675 105.03L68.308 104.906L68.2155 115.856C68.2078 116.411 68.655 116.866 69.2179 116.874Z" fill="#FFD2EC"/>
<path d="M121.968 117.051H137.628V58.1788C137.628 57.6005 137.158 57.1378 136.588 57.1378H123.016C122.438 57.1378 121.975 57.6082 121.975 58.1788V117.051H121.968Z" fill="#B2CBFD"/>
<path d="M127.404 57.7701H132.763C132.994 57.7701 133.172 57.5851 133.172 57.3614V49.3807C133.172 49.1494 132.987 48.972 132.763 48.972H127.404C127.173 48.972 126.995 49.1571 126.995 49.3807V57.3537C126.988 57.5851 127.173 57.7701 127.404 57.7701Z" fill="#1A51AA"/>
<path d="M121.965 108.398H133.755V74.5395H121.965V108.398Z" fill="#1A51AA"/>
<defs>
<linearGradient id="paint0_linear_101_4437" x1="83" y1="0" x2="83" y2="166" gradientUnits="userSpaceOnUse">
<stop stop-color="#EEEFFF"/>
<stop offset="1" stop-color="white" stop-opacity="0"/>
</linearGradient>
</defs>
</svg>
